<?xml version="1.0" standalone="no"?>
<!DOCTYPE svg PUBLIC "-//W3C//DTD SVG 20010904//EN"
 "http://www.w3.org/TR/2001/REC-SVG-20010904/DTD/svg10.dtd">
<svg version="1.0" xmlns="http://www.w3.org/2000/svg"
 width="883.000000pt" height="883.000000pt" viewBox="0 0 883.000000 883.000000"
 preserveAspectRatio="xMidYMid meet">
<metadata>
Created by potrace 1.14, written by Peter Selinger 2001-2017
</metadata>
<g transform="translate(0.000000,883.000000) scale(0.100000,-0.100000)"
fill="#000000" stroke="none">
<path d="M5557 6264 c-2 -2 -61 -6 -133 -9 -144 -5 -297 -14 -346 -20 -104
-13 -129 -15 -183 -20 -33 -3 -69 -7 -80 -9 -11 -2 -47 -7 -80 -10 -97 -12
-107 -13 -165 -20 -86 -11 -154 -24 -290 -56 -47 -11 -103 -22 -125 -25 -22
-4 -71 -16 -110 -27 -38 -11 -86 -24 -105 -28 -43 -11 -151 -56 -250 -104
-119 -59 -284 -147 -300 -160 -8 -7 -58 -37 -110 -66 -52 -30 -121 -71 -152
-92 -73 -49 -104 -61 -151 -59 -24 1 -51 -6 -73 -20 -40 -25 -84 -69 -84 -84
0 -11 -6 -16 -70 -58 -59 -39 -103 -56 -175 -67 -37 -6 -72 -13 -75 -15 -4 -3
-92 -23 -196 -45 -104 -22 -227 -49 -274 -61 -72 -17 -125 -21 -325 -24 -337
-6 -387 -11 -570 -65 -88 -25 -295 -130 -355 -179 -25 -21 -61 -48 -80 -62
-19 -13 -58 -44 -86 -69 -28 -25 -79 -70 -113 -100 -35 -30 -67 -56 -71 -58
-34 -12 -173 -247 -200 -337 -7 -22 -20 -49 -29 -60 -35 -43 -62 -103 -78
-175 -9 -43 -9 -164 1 -178 5 -7 9 -29 8 -49 -1 -19 8 -58 20 -85 12 -28 21
-56 21 -64 0 -8 4 -14 8 -14 11 0 39 -66 39 -94 0 -14 -5 -26 -11 -26 -5 0 -7
-4 -4 -10 3 -5 1 -10 -5 -10 -6 0 -8 -4 -5 -10 3 -5 1 -10 -4 -10 -6 0 -11 -7
-11 -15 0 -8 -4 -15 -8 -15 -5 0 -15 -11 -22 -25 -7 -14 -19 -25 -27 -25 -20
0 -16 -38 8 -71 18 -25 19 -32 8 -47 -11 -14 -11 -15 0 -5 11 9 19 7 40 -7 22
-16 52 -24 114 -29 5 -1 6 -5 3 -10 -3 -4 6 -6 21 -3 19 4 24 2 18 -8 -6 -10
-4 -11 6 -4 23 14 41 14 35 -1 -3 -8 7 -21 22 -30 l27 -16 -23 20 c-27 24 -17
32 29 25 19 -3 43 -7 54 -8 11 -2 38 -7 60 -11 22 -5 56 -10 75 -11 19 -1 36
-3 38 -4 1 -1 10 -3 20 -4 9 -1 22 -4 27 -7 6 -3 20 -4 32 -3 12 0 20 -3 17
-7 -7 -12 3 -11 26 1 21 11 51 3 49 -14 -3 -22 1 -34 13 -39 8 -3 13 5 14 22
1 14 -1 20 -3 14 -3 -7 -9 -13 -14 -13 -4 0 -6 7 -3 15 7 17 34 21 34 5 0 -5
5 -10 11 -10 5 0 7 4 4 10 -3 5 -3 10 0 10 3 0 15 -19 25 -42 11 -24 20 -35
20 -26 0 9 3 18 8 21 4 2 1 2 -6 0 -8 -1 -12 3 -9 9 2 7 11 12 20 10 12 -2 15
2 10 15 -5 14 -1 13 16 -4 24 -26 41 -30 41 -10 0 7 9 13 20 14 11 1 20 -3 20
-8 0 -6 8 -6 20 1 12 6 20 7 20 1 0 -5 22 -8 49 -8 36 2 47 -1 40 -9 -6 -8 -4
-14 6 -18 9 -3 14 -2 11 3 -3 5 1 12 10 15 24 9 28 7 14 -9 -7 -8 -9 -15 -4
-15 5 0 2 -4 -6 -10 -9 -6 -20 -5 -29 3 -11 9 -13 9 -8 0 4 -7 -1 -14 -13 -18
-11 -3 -20 -11 -20 -16 0 -5 11 -2 25 7 14 9 25 13 25 10 0 -4 9 -2 20 4 11 6
18 15 15 19 -6 11 21 23 58 26 27 1 36 -8 17 -20 -5 -3 -10 -1 -10 5 0 6 -4 9
-9 6 -5 -3 -8 -17 -8 -31 0 -13 4 -22 9 -19 5 3 7 13 4 21 -3 8 -2 11 3 8 5
-3 12 -1 16 5 9 15 25 12 25 -6 0 -8 -4 -13 -9 -9 -6 3 -15 -4 -21 -16 -8 -15
-9 -19 -1 -15 6 4 11 3 11 -2 0 -6 8 -13 17 -16 15 -6 15 -4 -2 14 -10 11 -15
23 -12 27 4 3 7 3 7 -1 0 -4 9 -2 20 4 11 6 20 16 20 23 0 8 -3 8 -9 -1 -6
-11 -10 -10 -15 4 -9 22 0 30 18 15 10 -8 16 -9 21 -1 4 7 12 7 25 0 22 -12
33 -13 26 -2 -2 4 4 8 14 8 10 0 17 -4 14 -8 -2 -4 5 -6 16 -5 11 1 20 4 20 7
0 3 9 6 20 6 11 0 20 -3 20 -7 0 -10 44 -5 52 6 5 6 8 5 8 -2 0 -7 5 -13 11
-13 5 0 7 6 3 13 -6 9 -5 9 7 0 17 -14 28 -14 53 -1 13 7 16 7 12 -1 -4 -6 -3
-11 3 -11 5 0 12 4 15 9 4 5 14 8 24 6 9 -1 26 2 37 8 11 5 17 6 13 2 -4 -5
-2 -15 5 -24 10 -14 10 -14 -3 -5 -20 15 -49 14 -43 -2 3 -8 -6 -11 -26 -10
-17 0 -31 4 -31 8 0 5 -4 8 -10 8 -5 0 -9 -5 -7 -11 1 -6 -5 -14 -13 -16 -12
-4 -12 -3 -1 5 9 7 10 12 2 16 -6 4 -11 3 -11 -3 0 -5 -14 -8 -30 -6 -21 2
-28 0 -23 -8 4 -7 0 -6 -10 2 -9 7 -17 10 -17 6 0 -4 -6 -3 -13 3 -17 14 -73
8 -69 -8 2 -8 -3 -10 -13 -6 -9 3 -20 6 -23 6 -4 0 0 5 8 11 13 9 13 10 0 6
-8 -2 -14 -9 -13 -15 1 -5 -4 -13 -13 -16 -10 -4 -14 0 -12 11 2 9 -5 17 -15
18 -9 2 -15 -1 -12 -6 3 -4 -3 -14 -15 -21 -11 -7 -20 -17 -20 -22 0 -4 6 -3
14 3 8 7 16 8 18 4 3 -4 3 -3 2 4 -4 17 13 26 19 11 2 -7 0 -22 -5 -33 -7 -15
-4 -13 11 5 l21 25 21 -25 21 -25 -16 28 c-9 15 -12 27 -6 27 6 0 14 -8 17
-17 6 -15 7 -15 13 2 7 20 36 29 46 14 3 -5 0 -9 -5 -9 -6 0 -11 -5 -11 -11 0
-8 5 -8 15 1 10 9 15 9 15 1 0 -6 5 -11 12 -11 6 0 3 9 -7 20 -10 11 -13 20
-8 20 17 0 36 -28 30 -44 -6 -15 17 -16 30 -1 4 4 2 5 -4 1 -8 -4 -13 -1 -13
8 0 23 17 20 30 -5 9 -16 14 -18 26 -9 7 7 12 15 10 19 -3 4 4 12 15 19 21 13
24 9 10 -17 -7 -13 -5 -17 10 -18 10 -1 19 3 19 8 0 6 -5 7 -10 4 -13 -8 -13
5 0 25 5 8 10 11 10 5 0 -5 9 -21 20 -35 11 -14 18 -18 15 -10 -4 10 1 16 12
16 10 1 26 4 36 9 12 5 17 3 17 -8 0 -9 4 -19 10 -22 6 -3 7 1 4 10 -7 16 12
45 29 45 5 0 2 -9 -8 -20 -10 -11 -13 -20 -8 -20 6 0 14 7 17 16 5 13 9 14 20
5 11 -9 15 -8 20 5 6 15 8 15 28 -2 12 -11 18 -14 15 -8 -4 7 0 15 9 18 24 9
28 7 16 -7 -8 -9 -8 -17 0 -27 8 -12 9 -12 4 2 -6 20 10 35 17 16 2 -7 3 -6 2
3 -1 9 2 23 6 32 6 10 5 18 -2 23 -8 5 -9 3 -4 -6 5 -9 4 -11 -3 -6 -8 5 -10
1 -6 -11 5 -15 4 -16 -5 -3 -6 8 -11 11 -11 6 0 -5 -6 -4 -13 1 -6 5 -22 8
-34 7 -12 0 -20 3 -17 8 4 6 -4 4 -17 -3 -13 -7 -27 -12 -31 -11 -5 1 -8 -4
-8 -11 0 -6 -5 -4 -11 6 -6 9 -14 15 -20 12 -5 -4 -9 -1 -9 4 0 6 7 11 15 11
8 0 15 -5 15 -11 0 -5 5 -7 10 -4 6 4 7 12 3 18 -4 7 0 6 10 -2 9 -7 17 -9 17
-4 0 5 40 8 90 7 51 -1 90 2 90 8 0 5 6 6 13 1 20 -12 217 -11 210 1 -4 6 1 5
11 -3 15 -13 19 -13 27 0 6 10 9 11 9 1 0 -9 5 -10 19 -2 14 7 22 7 27 -1 4
-8 9 -7 15 2 5 8 9 10 9 4 0 -12 89 -13 108 -2 6 5 12 4 12 -2 0 -5 -6 -12
-12 -14 -10 -4 -10 -6 -1 -6 6 -1 14 3 18 9 3 5 13 6 22 3 12 -5 14 -3 8 8 -8
12 -6 12 8 0 14 -11 17 -11 17 0 0 11 2 11 10 -1 9 -13 10 -13 10 0 0 9 3 11
8 5 4 -5 14 -10 22 -10 8 0 18 5 22 10 5 6 8 5 8 -4 0 -10 3 -11 14 -2 11 9
16 9 21 0 6 -8 10 -7 16 2 7 12 9 12 9 0 0 -9 4 -10 13 -4 18 15 49 13 37 -2
-6 -7 -8 -20 -4 -29 5 -12 2 -15 -10 -10 -9 3 -14 10 -11 14 3 5 1 11 -4 14
-5 4 -12 3 -15 -2 -6 -10 -66 -10 -82 0 -12 8 -34 6 -53 -6 -9 -6 -12 -5 -8 1
3 5 0 10 -8 10 -8 0 -15 -5 -15 -10 0 -5 -8 -3 -17 4 -11 10 -14 10 -9 2 4 -7
2 -14 -3 -14 -26 -3 -30 -4 -37 -12 -13 -13 -27 -7 -15 7 9 11 9 16 0 22 -7 4
-9 3 -6 -2 3 -6 -4 -11 -16 -11 -17 -2 -19 0 -7 7 8 5 11 10 6 10 -5 0 -18 -8
-28 -17 -18 -16 -18 -16 -12 2 5 13 4 16 -4 11 -7 -4 -12 -14 -12 -23 0 -9 -3
-13 -7 -9 -5 4 -8 13 -8 19 0 6 -14 12 -32 13 -18 1 -30 -3 -26 -8 3 -6 -5 -5
-17 2 -12 7 -20 8 -17 3 3 -5 -5 -9 -18 -9 -13 0 -21 4 -19 8 3 4 1 8 -5 8 -5
0 -13 -4 -16 -10 -3 -5 -1 -10 5 -10 6 0 8 -4 5 -10 -8 -14 -26 -13 -22 1 1 6
-5 13 -13 15 -8 1 -26 5 -39 8 -14 3 -29 2 -35 -2 -12 -9 -26 -9 -41 -1 -5 3
-16 4 -22 3 -7 -1 -17 -2 -22 -3 -18 -2 -40 -32 -35 -46 4 -8 10 -12 15 -9 5
3 9 0 9 -5 0 -6 5 -11 10 -11 18 0 10 18 -10 25 -11 4 -18 11 -15 16 4 5 14 5
25 -1 14 -7 23 -6 33 5 13 13 16 13 21 -1 9 -23 8 -24 -12 -18 -14 5 -14 4 -2
-4 8 -6 17 -9 21 -6 4 2 9 -1 12 -8 2 -7 2 -2 0 11 -4 21 -2 23 12 11 9 -8 13
-21 9 -34 -3 -12 3 -7 16 12 17 28 23 32 35 22 19 -16 19 -24 -1 -16 -8 3 -13
2 -9 -3 3 -5 -1 -12 -7 -15 -7 -3 -2 -3 11 0 17 5 21 3 16 -6 -5 -8 -4 -11 3
-6 6 3 9 16 7 29 -4 18 0 22 21 23 19 2 22 -1 14 -11 -9 -11 -4 -17 22 -30 23
-11 28 -12 16 -2 -17 13 -17 15 3 33 21 19 22 19 16 -1 -4 -11 -2 -27 4 -35 8
-12 9 -9 4 10 -6 24 -5 24 9 6 23 -29 19 -9 -5 25 -25 35 -8 39 18 4 14 -19
21 -22 33 -14 13 9 12 10 -2 5 -22 -7 -23 4 -2 30 8 10 12 13 8 5 -9 -18 16
-32 37 -21 17 9 29 4 29 -12 0 -5 -4 -7 -8 -4 -12 7 -38 -12 -28 -21 5 -4 11
-2 13 5 4 9 8 10 18 2 11 -9 13 -6 11 15 -2 16 1 24 8 22 6 -2 10 -15 9 -28
-2 -22 -2 -22 6 -4 9 19 12 17 15 -15 1 -10 9 -14 25 -12 16 3 21 0 16 -9 -5
-8 -4 -10 4 -5 16 11 2 29 -19 23 -13 -3 -17 1 -17 18 0 27 23 27 43 0 8 -11
14 -13 14 -6 0 7 5 9 10 6 8 -5 7 -11 -1 -21 -10 -12 -9 -13 5 -8 19 7 20 16
4 32 -7 7 -8 12 -2 12 14 0 31 -14 36 -29 2 -8 16 -15 30 -15 15 -1 24 2 21 7
-3 5 -14 7 -24 4 -11 -3 -19 -1 -19 3 0 5 -3 17 -7 27 -6 17 -6 17 14 0 23
-20 37 -10 27 20 -5 16 -4 16 8 3 8 -8 20 -21 28 -29 13 -12 13 -13 -2 -8 -10
4 -18 2 -18 -4 0 -6 13 -8 29 -6 20 4 31 0 35 -10 3 -8 11 -11 18 -7 8 5 9 2
4 -12 -5 -14 -4 -16 5 -7 13 13 3 36 -13 27 -6 -4 -9 -1 -6 7 3 8 13 16 23 17
9 2 15 0 12 -5 -3 -5 3 -15 15 -22 11 -7 17 -8 13 -2 -7 12 -7 12 48 15 24 1
41 -4 46 -12 6 -10 10 -11 15 -3 4 6 2 11 -3 11 -6 0 -10 3 -9 8 2 13 -19 57
-27 55 -4 -1 -12 -7 -16 -15 -7 -11 -9 -10 -9 1 0 11 -4 9 -16 -5 -15 -18 -15
-18 -5 3 14 27 14 33 1 33 -5 0 -9 -3 -9 -7 5 -29 -2 -36 -16 -17 -14 17 -15
16 -1 -13 14 -28 14 -32 0 -37 -12 -5 -15 -2 -10 9 3 9 2 13 -3 10 -13 -7 -8
35 7 60 8 14 12 16 12 5 0 -9 3 -11 8 -5 4 6 17 11 30 11 17 1 20 -2 13 -9 -6
-6 -11 -16 -11 -21 1 -6 10 0 20 13 11 13 20 18 20 12 0 -6 5 -11 11 -11 5 0
8 4 5 9 -7 11 37 9 45 -3 4 -5 13 -5 20 0 28 17 39 13 34 -14 -4 -25 -3 -26
10 -8 8 10 12 22 10 27 -3 4 3 6 12 5 10 -2 19 -8 19 -14 3 -22 4 -23 18 -10
10 9 11 15 3 20 -7 4 -2 6 9 6 18 -2 20 -5 10 -20 -6 -10 -13 -18 -17 -18 -3
0 -6 -7 -6 -15 0 -22 12 -18 27 10 11 20 16 22 28 13 11 -10 17 -7 32 11 13
18 19 21 25 11 5 -8 4 -11 -2 -7 -6 4 -13 0 -17 -8 -3 -8 3 -19 14 -25 24 -13
30 -13 30 0 0 6 -7 10 -17 10 -9 0 -14 3 -10 6 9 9 48 -6 42 -17 -4 -5 0 -9 8
-9 8 0 17 7 21 15 3 9 0 15 -9 15 -8 0 -15 5 -15 11 0 5 -6 7 -12 3 -7 -4 -9
-3 -5 1 4 5 15 10 23 11 9 1 13 0 10 -3 -3 -3 2 -11 11 -18 15 -11 14 -14 -5
-33 -16 -16 -18 -22 -8 -22 8 0 18 5 21 10 4 6 11 7 17 4 7 -5 9 -1 5 9 -9 24
6 21 21 -3 7 -11 17 -20 23 -20 8 0 7 6 -2 18 -13 16 -12 16 7 -1 12 -10 32
-20 44 -22 13 -3 27 -10 31 -17 5 -7 13 -13 19 -13 6 0 14 -6 19 -13 5 -8 11
-13 15 -13 21 3 36 0 36 -7 0 -4 -9 -8 -19 -8 -11 0 -18 3 -16 6 2 4 -2 7 -10
7 -11 0 -12 -4 -4 -13 7 -9 5 -15 -8 -22 -10 -6 -15 -14 -11 -18 4 -4 16 4 27
17 11 13 23 20 27 16 5 -4 2 -12 -6 -17 -10 -6 -11 -10 -3 -10 7 0 17 9 23 20
10 19 11 19 68 -2 31 -12 58 -26 60 -30 2 -4 10 -4 18 -1 8 3 14 1 14 -4 0 -5
19 -10 42 -12 22 -1 50 -7 61 -12 14 -8 17 -8 13 0 -11 18 5 13 21 -6 8 -10
11 -12 8 -5 -5 10 -1 13 16 10 13 -2 27 -10 31 -18 5 -12 7 -11 7 3 1 10 5 16
10 13 5 -4 21 -2 36 4 20 8 24 7 19 -3 -6 -9 -5 -9 7 0 8 6 26 13 39 15 14 2
31 8 39 12 11 7 13 5 8 -7 -5 -14 -1 -13 23 4 16 12 42 22 58 23 17 1 30 6 29
11 -1 6 5 10 13 11 8 1 32 9 53 18 21 9 42 14 47 11 6 -3 7 1 4 10 -4 9 -3 15
2 13 5 -1 19 3 32 10 12 7 22 9 22 5 0 -4 16 9 35 30 18 20 36 37 39 37 3 0
30 25 61 56 31 31 58 54 61 52 2 -3 -2 -11 -11 -18 -8 -7 -15 -21 -15 -32 0
-12 -4 -17 -12 -12 -7 4 -8 3 -4 -4 11 -18 14 -15 30 22 12 30 18 33 46 30 17
-2 37 -7 43 -10 7 -4 9 -4 5 1 -4 4 6 18 22 30 16 12 27 25 23 28 -3 4 1 7 11
7 9 0 14 -4 11 -10 -4 -6 1 -7 11 -3 14 5 14 7 -5 17 -20 11 -20 13 -5 31 8
11 13 15 9 8 -3 -7 3 -21 15 -33 11 -11 20 -16 20 -12 0 4 -5 13 -11 19 -8 8
-8 13 0 17 6 4 11 3 11 -3 0 -6 10 -15 21 -22 12 -6 19 -7 15 -1 -3 5 1 12 9
16 8 3 19 -3 24 -12 6 -9 11 -12 11 -6 0 5 -5 15 -12 22 -6 6 -8 15 -4 19 4 4
12 0 17 -10 11 -18 39 -24 39 -7 0 5 -8 6 -17 3 -16 -6 -16 -5 -4 10 12 16 16
16 31 2 19 -18 30 -19 30 -4 0 5 -3 8 -7 6 -5 -3 -14 2 -22 10 -12 13 -11 14
8 8 13 -4 21 -2 21 5 0 6 5 8 10 5 6 -4 8 -10 5 -15 -7 -12 5 -40 17 -40 6 0
5 7 -2 15 -7 9 -10 19 -6 22 4 4 12 1 17 -7 8 -12 9 -11 7 5 -2 14 4 21 21 23
13 2 21 0 17 -6 -8 -13 19 -23 39 -16 11 4 14 13 9 28 -5 18 -3 18 21 -7 14
-15 30 -25 36 -22 5 4 9 1 9 -4 0 -6 5 -11 11 -11 6 0 7 5 2 13 -4 6 -8 25 -9
42 -2 26 0 27 11 12 6 -9 15 -14 18 -10 4 3 7 1 7 -5 0 -7 -4 -12 -10 -12 -5
0 -10 -4 -10 -10 0 -16 17 -11 24 7 5 11 1 22 -10 30 -10 7 -13 13 -7 13 7 0
11 9 10 20 -1 11 -5 20 -10 20 -5 0 -6 -8 -3 -17 5 -15 4 -15 -9 1 -8 11 -15
15 -15 10 0 -6 6 -16 13 -24 10 -12 9 -12 -4 -2 -9 6 -19 9 -23 5 -4 -4 -4 1
0 12 7 20 6 20 -10 0 -10 -11 -15 -15 -12 -10 2 6 -4 11 -14 11 -10 0 -18 -5
-17 -11 1 -5 -4 -9 -11 -7 -8 1 -11 -2 -6 -9 5 -8 3 -9 -6 -4 -8 5 -11 4 -6
-3 4 -7 -1 -9 -15 -7 -12 2 -30 0 -40 -5 -20 -11 -52 -3 -43 12 3 5 11 5 19
-2 9 -8 14 -7 18 3 4 10 -2 13 -19 11 -13 -1 -24 2 -24 8 0 5 9 6 20 3 11 -3
20 -2 20 4 0 5 9 8 20 6 11 -2 22 1 26 6 3 6 12 5 22 -3 13 -11 15 -10 9 5 -5
15 -4 16 13 7 25 -13 33 -13 24 2 -4 7 -3 8 4 4 7 -4 18 -4 25 1 13 8 40 11
127 15 30 2 60 6 65 9 14 9 57 5 74 -5 11 -7 13 -5 9 6 -5 12 0 15 25 13 18
-2 35 2 39 8 5 8 11 7 21 -1 7 -7 17 -8 21 -4 8 7 59 13 109 12 15 0 27 4 27
8 0 5 7 9 15 9 8 0 12 -4 9 -8 -2 -4 2 -9 8 -12 7 -2 2 -4 -12 -5 -14 0 -34
-2 -45 -5 -11 -3 -27 -7 -35 -9 -8 -1 -19 -7 -23 -13 -5 -6 -7 -4 -4 5 3 11
-2 16 -18 16 -13 0 -21 -4 -18 -10 4 -5 1 -6 -7 -1 -9 6 -11 4 -5 -6 7 -11 5
-11 -10 1 -15 12 -17 12 -10 1 6 -10 4 -12 -5 -6 -9 6 -11 4 -5 -5 5 -9 4 -11
-3 -6 -7 4 -12 2 -12 -4 0 -6 -5 -8 -11 -4 -8 4 -7 9 2 15 9 6 3 7 -16 4 -46
-9 -49 -10 -62 -18 -6 -4 -14 -3 -18 3 -4 6 -11 7 -17 4 -6 -4 -23 -8 -39 -9
-16 -1 -40 -10 -53 -18 -13 -9 -27 -13 -30 -10 -12 12 -36 12 -29 0 19 -31 21
-71 4 -85 -9 -7 -1 -5 16 4 26 15 30 20 18 27 -8 4 -15 13 -15 19 0 6 12 3 26
-7 25 -16 27 -16 48 4 25 24 45 29 27 7 -8 -10 -9 -16 -1 -21 14 -9 32 5 26
20 -3 8 3 19 11 27 14 11 16 11 11 -3 -3 -9 -2 -22 4 -30 8 -11 9 -11 4 3 -6
20 10 34 17 16 4 -10 6 -10 6 0 1 7 5 11 11 7 5 -3 6 -13 3 -22 -6 -15 -5 -16
9 -3 14 13 14 16 -3 28 -11 7 -19 18 -19 24 0 6 8 4 18 -5 23 -21 32 -21 32
-1 0 8 5 12 10 9 7 -4 7 -12 0 -25 -12 -22 -13 -40 -2 -40 4 0 9 9 10 20 4 45
6 50 16 47 14 -5 15 -30 1 -40 -6 -5 -4 -7 5 -4 8 2 14 10 12 16 -2 10 11 15
31 12 5 -1 6 3 2 9 -3 5 -1 10 6 10 6 0 9 -8 6 -19 -5 -19 15 -23 30 -6 4 4 2
5 -4 1 -8 -4 -13 -2 -13 5 0 7 -7 20 -16 30 -10 11 -12 19 -5 24 6 3 11 3 11
-2 0 -4 7 -17 15 -27 14 -19 16 -19 34 -2 19 17 20 17 36 -11 9 -15 14 -20 11
-11 -3 10 -1 20 5 23 5 4 7 10 4 15 -3 4 2 11 11 14 24 9 28 7 16 -7 -8 -9 -3
-17 18 -29 28 -16 29 -16 18 2 -7 10 -15 17 -19 14 -4 -2 -7 5 -6 16 1 21 23
35 32 20 4 -6 1 -10 -4 -10 -8 0 -7 -7 1 -19 12 -19 28 -19 28 0 0 6 -4 7 -10
4 -5 -3 -10 -2 -10 2 0 5 10 14 21 22 19 11 21 11 16 -1 -3 -8 -1 -21 5 -29 8
-12 9 -12 5 1 -2 8 3 20 12 27 25 20 36 15 16 -7 -27 -29 -10 -24 20 6 14 14
23 29 20 32 -3 4 -10 0 -15 -8 -8 -12 -10 -12 -10 -1 0 10 -3 11 -13 2 -8 -6
-17 -8 -21 -4 -11 12 -37 12 -30 1 4 -7 2 -8 -5 -4 -15 10 -3 27 17 25 10 -1
19 0 22 1 6 2 76 10 130 14 19 1 41 -2 48 -7 9 -7 17 -6 25 2 9 10 8 11 -5 6
-10 -4 -18 -3 -18 1 0 8 33 12 128 17 17 1 32 4 32 7 0 4 14 6 30 6 22 0 30
-4 30 -18 0 -10 -5 -18 -10 -18 -6 0 -9 6 -8 13 2 7 -5 11 -17 9 -11 -2 -26
-4 -32 -4 -7 -1 -13 -6 -13 -12 0 -6 -5 -4 -10 4 -8 13 -10 12 -10 -4 0 -13 4
-16 18 -11 9 5 25 7 35 6 55 -4 57 -5 51 -26 -4 -15 -3 -16 4 -6 6 8 17 11 25
8 11 -4 14 -1 11 8 -3 7 3 22 14 33 11 11 18 22 16 25 -2 2 8 3 23 2 16 -1 32
1 38 4 33 18 113 2 99 -21 -4 -7 -9 -6 -14 3 -5 7 -16 14 -25 15 -14 2 -14 0
-3 -14 11 -14 10 -15 -7 -8 -34 13 -55 15 -55 5 0 -6 -8 -5 -21 2 -17 9 -20 8
-14 -2 5 -7 4 -10 -3 -5 -6 3 -14 1 -18 -5 -4 -7 -3 -9 4 -5 6 3 13 -3 17 -14
5 -16 10 -18 26 -9 11 5 17 14 14 18 -2 5 7 9 20 9 21 0 23 -3 14 -14 -7 -8
-9 -17 -6 -21 4 -3 9 2 13 11 6 16 8 16 25 0 11 -10 19 -12 19 -6 0 7 -4 12
-10 12 -5 0 -10 4 -10 9 0 5 11 9 25 9 21 0 23 -3 14 -14 -10 -12 -9 -13 5 -8
10 4 14 13 11 23 -3 12 1 17 15 17 12 0 19 -5 16 -12 -3 -7 2 -18 10 -25 10
-8 11 -15 4 -24 -7 -8 -6 -12 3 -12 7 0 14 9 14 19 1 10 -2 18 -5 18 -4 0 -8
9 -9 21 -2 16 1 18 12 9 8 -7 20 -8 27 -4 7 5 18 9 23 10 6 0 15 2 20 2 13 2
17 42 4 42 -5 0 -8 -3 -8 -7 3 -20 -2 -33 -12 -33 -8 0 -7 6 2 18 7 9 9 14 5
10 -5 -4 -15 -3 -22 3 -8 7 -14 7 -19 -1 -3 -5 1 -10 10 -10 9 0 13 -5 10 -10
-5 -8 -11 -7 -21 1 -11 9 -14 9 -14 0 0 -7 -5 -9 -11 -5 -8 4 -7 9 2 15 8 5
10 9 5 9 -5 0 -17 -7 -27 -16 -11 -10 -23 -13 -31 -8 -7 5 -16 9 -20 9 -3 0
-10 4 -15 8 -4 5 9 6 30 3 21 -3 36 -2 33 2 -3 5 0 9 7 10 47 6 72 10 72 12 0
1 18 3 40 4 22 1 45 5 51 8 6 4 23 5 37 2 15 -2 27 -1 27 4 0 5 14 9 30 9 23
0 29 -4 25 -15 -3 -10 0 -12 10 -9 8 4 17 2 20 -2 7 -12 -19 -21 -35 -11 -7 4
-10 12 -7 17 7 12 -30 10 -40 -2 -5 -4 -3 -5 3 -2 7 4 18 -1 25 -10 12 -15 12
-16 -6 -8 -23 9 -56 10 -100 1 -23 -5 -27 -4 -15 5 12 8 12 10 1 7 -15 -4 -27
-48 -12 -48 4 0 13 -10 20 -22 6 -13 9 -15 7 -5 -7 23 4 48 17 40 6 -3 7 -1 3
5 -4 7 -3 12 3 12 18 0 23 -20 7 -26 -22 -8 -20 -17 7 -33 20 -13 21 -13 8 3
-12 15 -12 19 3 34 14 14 20 15 36 4 16 -10 25 -10 43 0 12 7 27 11 34 10 6
-1 14 2 18 8 3 5 11 10 17 10 6 0 4 -8 -5 -18 -10 -10 -17 -22 -17 -26 0 -4
11 6 25 22 14 17 25 34 25 38 0 5 -5 2 -10 -6 -7 -11 -10 -11 -10 -2 0 7 -4
11 -9 7 -5 -3 -12 -1 -16 5 -4 6 -10 8 -15 5 -5 -3 -12 0 -16 6 -5 9 0 10 14
7 12 -4 24 -3 27 2 3 4 18 6 35 5 17 -1 33 2 36 7 3 5 12 4 20 -3 11 -9 14 -9
14 0 0 8 4 8 14 -1 8 -7 13 -17 13 -23 -1 -5 4 -9 11 -7 6 1 12 -5 12 -14 0
-15 -2 -15 -22 -1 -13 8 -22 21 -20 28 2 9 -2 8 -14 -2 -10 -8 -15 -9 -12 -3
4 6 -3 10 -17 10 -13 0 -21 -4 -18 -10 3 -5 1 -6 -5 -3 -6 5 -8 0 -5 -12 3
-10 0 -22 -6 -25 -14 -9 -14 -26 -1 -26 6 0 9 5 8 11 -2 6 3 14 11 17 9 3 11
0 6 -9 -5 -8 -1 -7 11 3 20 17 39 19 62 5 16 -11 32 0 32 21 0 14 2 15 10 2 6
-9 5 -20 -3 -30 -6 -8 -2 -6 11 4 12 11 22 14 22 8 0 -7 5 -12 11 -12 8 0 8 5
-1 15 -7 8 -16 12 -21 9 -5 -3 -9 0 -9 5 0 15 16 14 40 -1 18 -11 23 -9 44 16
15 20 25 25 30 18 4 -7 3 -12 -3 -12 -19 0 -33 -39 -21 -58 9 -14 10 -13 5 6
-6 21 -4 22 12 14 10 -5 24 -7 31 -5 8 3 10 -2 6 -14 -5 -14 -4 -15 4 -3 12
16 6 31 -11 29 -24 -3 -37 1 -37 12 0 6 9 8 23 4 17 -5 19 -4 7 4 -8 6 -10 11
-4 11 7 0 14 10 17 23 6 20 5 21 -8 4 -8 -12 -15 -14 -20 -8 -3 6 1 14 9 17 9
3 14 10 11 14 -3 4 9 6 25 5 17 -1 30 2 30 9 0 8 2 8 8 0 4 -6 13 -13 21 -16
19 -5 22 -46 4 -52 -7 -3 -12 -13 -12 -23 1 -17 2 -17 6 0 3 11 11 16 19 13 8
-3 13 -2 10 3 -3 5 1 12 10 15 11 4 14 1 10 -12 -5 -14 1 -22 21 -31 l28 -12
-22 18 -23 18 26 12 c22 10 24 10 19 -7 -3 -10 -1 -21 5 -25 8 -5 8 -11 1 -19
-8 -9 -7 -13 4 -13 8 0 12 4 10 8 -3 4 4 18 15 30 17 21 21 22 30 9 9 -13 11
-13 20 0 9 13 11 13 20 0 7 -11 5 -16 -5 -18 -8 -2 -15 -8 -15 -13 0 -12 32 4
50 25 12 15 26 15 79 0 20 -6 22 -4 17 13 -4 14 -2 20 9 20 10 0 13 -6 10 -17
-3 -9 2 -25 11 -36 8 -10 13 -14 10 -7 -3 6 -3 18 0 27 5 12 10 13 25 5 10 -5
19 -15 19 -21 0 -7 -5 -6 -15 2 -10 9 -15 9 -15 1 0 -6 6 -11 13 -11 8 0 7 -4
-3 -10 -9 -6 -10 -10 -3 -10 6 0 14 4 18 10 3 5 11 8 18 6 7 -1 9 -1 5 1 -5 3
-8 9 -8 14 0 6 5 7 10 4 6 -3 10 -1 10 5 0 7 -7 9 -16 6 -10 -4 -13 -2 -8 6 5
7 3 8 -6 3 -9 -5 -11 -4 -6 3 5 8 1 10 -10 5 -13 -5 -15 -2 -9 18 4 16 3 20
-3 11 -7 -11 -11 -10 -16 5 -7 17 -8 17 -21 0 -10 -13 -14 -15 -18 -5 -4 10
-6 10 -6 -1 -1 -8 -9 -5 -22 10 -11 13 -18 19 -15 13 3 -6 -1 -11 -9 -11 -8 0
-11 5 -8 11 5 8 3 8 -8 0 -16 -12 -29 -12 -48 0 -10 7 -12 6 -6 -3 6 -10 3
-11 -15 -1 -18 10 -21 9 -15 -1 6 -8 4 -10 -5 -4 -9 6 -11 4 -5 -6 7 -11 6
-12 -6 -3 -8 6 -22 10 -32 9 -11 -2 -15 1 -10 8 3 7 2 9 -2 4 -5 -4 -17 1 -28
10 -11 10 -17 12 -13 6 4 -7 4 -14 -1 -14 -37 -6 -52 -5 -46 4 3 6 2 7 -3 4
-6 -3 -16 -1 -24 5 -12 8 -12 9 2 4 10 -3 20 -1 23 5 4 5 11 7 16 3 5 -3 7
-10 4 -15 -4 -5 -1 -9 4 -9 6 0 11 6 11 14 0 9 10 13 33 11 17 -1 40 2 50 7
10 5 17 5 17 0 0 -12 43 -10 53 3 5 6 5 -1 1 -15 -6 -22 -5 -23 9 -11 9 7 14
18 10 24 -3 6 -1 7 6 3 6 -4 9 -11 6 -16 -3 -5 -1 -11 5 -15 9 -5 14 6 12 26
-1 4 60 5 92 0 5 0 3 -8 -4 -16 -10 -12 -10 -15 3 -15 8 0 18 6 21 13 3 6 3 2
0 -11 -3 -12 -2 -21 3 -20 4 2 26 -14 48 -35 22 -21 52 -46 68 -55 32 -19 34
-27 10 -41 -16 -9 -16 -10 -2 -11 9 0 20 8 23 17 6 14 9 15 15 4 5 -7 11 -12
15 -12 3 1 5 -2 4 -6 -1 -5 -9 -7 -18 -5 -12 2 -13 1 -1 -7 15 -10 41 -4 41 9
0 10 27 7 37 -5 4 -4 2 -5 -6 0 -10 6 -12 4 -7 -4 6 -8 12 -9 20 -2 9 7 17 7
26 -2 10 -9 11 -9 6 1 -6 10 7 13 61 11 37 -1 75 0 83 2 9 3 14 -2 12 -11 -3
-12 -1 -13 9 -2 14 13 43 17 35 4 -3 -5 1 -9 9 -9 8 0 13 4 12 9 -1 5 50 9
114 9 l117 0 68 40 c37 22 79 53 92 69 14 16 28 27 33 24 5 -3 6 2 3 10 -3 8
4 24 15 35 12 12 21 22 20 24 -5 15 17 57 30 57 13 0 13 2 2 9 -9 6 -10 11 -3
15 6 4 9 13 5 21 -3 8 0 15 6 15 6 0 10 6 8 13 -1 6 5 11 13 9 12 -3 12 -1 3
9 -10 10 -9 15 5 26 15 12 15 12 0 7 -12 -4 -16 -1 -13 13 2 10 4 22 4 26 1 5
7 5 14 1 8 -6 8 -3 -1 9 -17 20 -6 40 19 34 11 -3 17 -2 14 3 -3 4 2 11 10 14
15 5 33 41 40 79 2 9 7 22 11 29 4 6 8 21 9 32 1 12 5 32 8 46 8 30 13 53 38
195 23 130 21 350 -5 423 -8 23 -20 91 -26 150 -6 59 -17 130 -25 157 -9 28
-17 59 -19 70 -5 28 -41 135 -56 167 -17 37 -67 54 -213 72 -21 3 -72 15 -114
27 -42 11 -88 23 -102 25 -14 3 -37 9 -51 14 -14 5 -62 16 -108 24 -87 15
-138 41 -287 147 -172 123 -228 157 -465 281 -93 49 -192 90 -247 103 -10 2
-72 18 -138 35 -111 29 -173 43 -250 56 -117 19 -147 24 -205 30 -36 3 -74 8
-85 10 -11 2 -54 6 -95 9 -41 3 -100 8 -130 12 -58 7 -467 13 -473 7z m1427
-2526 c-16 -29 -37 -47 -47 -41 -6 4 -8 0 -4 -10 4 -11 1 -17 -9 -17 -8 0 -17
6 -20 13 -5 14 -34 20 -34 7 0 -3 -11 -6 -24 -6 -20 0 -23 3 -16 17 5 9 7 19
5 21 -3 3 7 4 22 3 16 -1 33 2 40 7 7 5 14 5 18 -2 4 -7 11 -8 18 -2 7 6 21
12 32 15 11 2 21 5 23 6 2 0 0 -5 -4 -11z m235 -23 c9 0 22 -4 30 -9 8 -5 16
-4 20 2 8 12 53 11 63 -3 4 -5 0 -18 -9 -28 -13 -13 -18 -14 -24 -5 -11 17
-66 19 -80 2 -13 -16 -29 -18 -29 -5 0 5 9 13 20 16 11 4 17 11 14 17 -4 6 -9
5 -15 -3 -6 -11 -9 -10 -15 4 -6 17 -7 17 -20 0 -10 -14 -15 -15 -25 -6 -6 6
-18 9 -27 6 -9 -4 -13 -1 -10 7 2 7 14 14 26 15 12 1 25 5 29 8 3 4 13 1 21
-6 8 -6 22 -12 31 -12z m171 -7 c0 -4 0 -11 -1 -14 0 -4 5 -11 13 -16 9 -7 7
-8 -7 -3 -11 3 -24 7 -30 8 -10 2 -25 18 -25 28 0 3 11 5 25 5 14 0 25 -4 25
-8z m62 -34 c-6 -12 -9 -7 -9 16 0 23 3 28 9 16 5 -9 5 -23 0 -32z m-687 -14
c-5 -8 -11 -8 -17 -2 -6 6 -7 16 -3 22 5 8 11 8 17 2 6 -6 7 -16 3 -22z m-90
11 c3 -5 2 -12 -3 -15 -5 -3 -9 1 -9 9 0 17 3 19 12 6z m-105 -16 c0 -7 -30
-13 -34 -7 -3 4 4 9 15 9 10 1 19 0 19 -2z m-76 -20 c-4 -8 -11 -12 -16 -9 -6
4 -5 10 3 15 19 12 19 11 13 -6z m122 3 c-10 -6 -22 -6 -26 -2 -5 5 3 10 18
11 22 1 24 0 8 -9z m-522 -39 c-10 -20 -19 -28 -25 -22 -13 13 -1 41 19 46 10
3 18 5 20 6 1 0 -5 -13 -14 -30z m81 -9 c3 -5 -1 -10 -9 -10 -9 0 -16 5 -16
10 0 6 4 10 9 10 6 0 13 -4 16 -10z m-572 -60 c-3 -3 -11 3 -18 13 -10 13 -14
15 -18 5 -2 -7 -8 -9 -13 -5 -5 4 -2 12 6 17 10 6 20 3 31 -8 9 -9 14 -19 12
-22z m-86 -11 c-9 -6 -15 -14 -12 -20 4 -5 2 -9 -4 -9 -5 0 -13 5 -16 11 -5 7
-13 5 -25 -6 -10 -9 -21 -12 -24 -7 -5 9 12 18 52 27 8 2 16 6 20 9 3 3 10 6
16 6 6 0 3 -5 -7 -11z m-214 -45 c-4 -11 -8 -12 -20 -3 -11 10 -11 14 -1 20
17 10 28 2 21 -17z m87 16 c0 -13 -12 -19 -26 -13 -8 3 -12 8 -9 12 5 10 35
10 35 1z m-144 -10 c6 6 10 3 10 -9 0 -15 -4 -17 -17 -10 -12 6 -21 4 -29 -6
-7 -8 -16 -12 -21 -9 -5 3 -21 -4 -36 -16 -23 -18 -29 -19 -38 -7 -5 8 -17 13
-26 12 -9 -2 -16 3 -16 11 0 9 4 10 11 5 7 -6 18 -4 30 5 10 7 23 11 27 8 5
-3 9 -1 9 5 0 5 8 8 18 6 10 -2 25 1 33 5 7 5 18 5 24 0 7 -6 15 -6 21 0z
m-445 -39 c4 -1 6 -11 5 -23 -1 -13 -7 -22 -15 -20 -7 1 -20 -3 -28 -10 -18
-15 -71 -20 -79 -7 -10 16 -13 50 -4 44 5 -3 12 -1 15 5 5 8 11 8 20 0 10 -8
14 -7 17 2 4 10 9 10 23 -2 17 -13 18 -13 13 2 -5 11 -2 15 10 13 9 -2 20 -4
23 -4z m203 -21 c-1 -14 -2 -29 -3 -33 0 -4 -13 3 -28 17 -21 19 -30 23 -40
14 -10 -8 -11 -13 -2 -18 8 -6 8 -9 -1 -15 -7 -4 -16 -1 -21 6 -11 18 -11 32
0 25 4 -3 16 3 25 13 9 10 29 18 44 18 23 -1 28 -6 26 -27z m196 0 c0 -5 -5
-10 -11 -10 -5 0 -7 5 -4 10 3 6 8 10 11 10 2 0 4 -4 4 -10z m-543 -6 c-3 -3
5 -18 18 -32 18 -19 21 -28 12 -34 -16 -10 -29 -10 -23 1 9 14 -20 21 -34 8
-10 -9 -11 -9 -6 0 3 6 2 14 -4 18 -6 3 -18 -8 -28 -25 -31 -58 -48 -74 -82
-76 -18 -1 -40 4 -47 12 -8 8 -11 14 -6 14 5 0 17 14 26 30 10 17 23 30 28 30
6 0 4 -7 -5 -15 -31 -32 9 -66 43 -37 19 16 19 18 4 37 -13 17 -15 17 -9 2 3
-11 2 -16 -5 -12 -5 4 -7 15 -4 26 5 15 3 18 -12 12 -19 -7 -18 -5 11 17 11 8
17 10 13 4 -4 -7 2 -23 13 -35 21 -26 26 -20 10 11 -7 13 -7 21 2 26 6 4 8 3
5 -3 -4 -6 0 -13 8 -16 10 -4 12 -1 8 10 -5 12 -2 15 9 10 9 -3 24 1 35 8 18
15 31 20 20 9z m193 -18 c-7 -7 -13 -7 -20 0 -6 6 -3 10 10 10 13 0 16 -4 10
-10z m-295 -68 c5 4 5 1 1 -6 -4 -7 -12 -10 -17 -7 -5 4 -9 0 -9 -7 0 -9 -3
-9 -10 2 -15 23 -12 32 9 21 10 -6 22 -7 26 -3z m-3615 -123 c0 -2 -7 -8 -15
-15 -12 -10 -15 -10 -15 2 0 8 7 15 15 15 8 0 15 -1 15 -2z m60 -15 c0 -5 -2
-10 -4 -10 -3 0 -8 5 -11 10 -3 6 -1 10 4 10 6 0 11 -4 11 -10z m2110 0 c0 -5
-4 -10 -10 -10 -5 0 -10 5 -10 10 0 6 5 10 10 10 6 0 10 -4 10 -10z m150 -2
c0 -4 -6 -8 -14 -8 -8 0 -17 4 -20 8 -2 4 4 8 15 8 10 0 19 -4 19 -8z m25 -18
c3 -5 1 -10 -4 -10 -6 0 -11 5 -11 10 0 6 2 10 4 10 3 0 8 -4 11 -10z m-1236
-16 c-6 -7 -17 -10 -26 -7 -17 7 -2 20 22 20 11 0 12 -4 4 -13z m128 4 c7 -1
10 -5 7 -10 -4 -5 -12 -7 -20 -4 -7 3 -20 -1 -28 -9 -12 -13 -16 -13 -26 0
-17 21 -3 36 28 29 15 -3 32 -6 39 -6z m147 -3 c-4 -8 -10 -12 -15 -9 -11 6
-2 24 11 24 5 0 7 -7 4 -15z m283 -13 l1 -27 -18 22 c-16 21 -19 21 -25 5 -5
-12 -9 -13 -12 -4 -4 11 -8 10 -22 -1 -14 -13 -18 -13 -29 -1 -14 15 -12 16
30 18 15 1 29 4 32 7 3 2 13 5 23 6 13 1 18 -6 20 -25z m98 18 c-3 -6 1 -13
10 -16 14 -6 14 -8 -2 -19 -13 -10 -20 -10 -25 -2 -6 11 7 47 18 47 3 0 2 -5
-1 -10z m-917 -8 c9 9 12 9 12 0 0 -7 0 -15 0 -19 0 -6 -23 -11 -74 -16 -11
-1 -21 5 -23 13 -4 12 -3 13 5 1 8 -11 12 -10 23 7 9 15 17 18 29 12 11 -6 21
-5 28 2z m110 -5 c7 -5 12 -3 12 3 0 6 5 8 11 4 8 -4 7 -9 -2 -15 -8 -4 -18
-4 -23 1 -6 6 -14 5 -22 -1 -15 -12 -37 -3 -29 12 7 10 33 8 53 -4z m369 4 c7
-2 -33 -41 -41 -41 -6 0 -5 5 1 11 6 6 9 17 6 24 -4 11 10 13 34 6z m393 -5
c0 -6 4 -5 9 3 6 9 9 5 9 -14 0 -20 -3 -24 -12 -14 -6 7 -17 18 -25 24 -11 10
-11 12 3 12 9 0 16 -5 16 -11z m-1045 -14 c9 -6 11 -14 6 -39 -1 -8 -30 29
-31 40 0 9 12 9 25 -1z m1234 -6 c7 -9 1 -12 -25 -13 -31 -1 -42 6 -29 18 9
10 44 7 54 -5z"/>
<path d="M6895 3720 c-3 -6 -12 -7 -18 -4 -7 4 -8 3 -4 -2 12 -13 76 -12 88 2
7 9 6 12 -5 10 -9 -1 -19 -5 -22 -9 -4 -4 -13 -2 -20 4 -8 7 -14 7 -19 -1z"/>
<path d="M6846 3703 c-6 -14 -5 -15 5 -6 7 7 10 15 7 18 -3 3 -9 -2 -12 -12z"/>
<path d="M7160 3720 c-8 -5 -12 -12 -9 -15 4 -3 12 1 19 10 14 17 11 19 -10 5z"/>
<path d="M7280 3704 c0 -2 9 -8 19 -14 14 -7 22 -7 27 2 4 7 3 8 -4 4 -7 -4
-12 -3 -12 2 0 5 -7 9 -15 9 -8 0 -15 -2 -15 -3z"/>
<path d="M7367 3699 c7 -7 15 -10 18 -7 3 3 -2 9 -12 12 -14 6 -15 5 -6 -5z"/>
<path d="M5199 3463 c-13 -16 -12 -17 4 -4 16 13 21 21 13 21 -2 0 -10 -8 -17
-17z"/>
<path d="M5160 3461 c-8 -6 -18 -7 -22 -5 -4 3 -8 0 -8 -6 0 -6 -6 -8 -12 -4
-7 4 -9 3 -5 -1 13 -15 31 -13 51 6 21 21 20 24 -4 10z"/>
<path d="M4776 3424 c-5 -13 -9 -14 -20 -5 -10 9 -16 9 -21 1 -5 -8 -11 -8
-20 0 -9 7 -16 6 -24 -4 -9 -10 -8 -16 3 -25 11 -9 16 -9 21 0 6 8 10 7 16 -2
7 -11 9 -11 9 -1 0 7 4 11 9 8 5 -3 14 1 21 9 7 8 16 12 21 9 5 -3 6 2 3 10
-8 20 -10 20 -18 0z m-62 -25 c-3 -5 -10 -7 -15 -3 -5 3 -7 10 -3 15 3 5 10 7
15 3 5 -3 7 -10 3 -15z m40 13 c3 -5 -1 -9 -9 -9 -8 0 -12 4 -9 9 3 4 7 8 9 8
2 0 6 -4 9 -8z"/>
<path d="M4976 3423 c-6 -14 -5 -15 5 -6 7 7 10 15 7 18 -3 3 -9 -2 -12 -12z"/>
<path d="M4640 3389 c0 -5 -6 -7 -12 -3 -7 4 -10 4 -6 0 3 -4 9 -7 12 -7 3 1
15 -4 26 -9 11 -6 20 -9 20 -8 0 2 -9 11 -20 21 -11 9 -20 12 -20 6z"/>
<path d="M4480 3312 c0 -7 -1 -15 -2 -19 -2 -3 5 -7 15 -9 15 -2 16 0 5 14 -7
9 -14 19 -15 21 -2 2 -3 -1 -3 -7z"/>
<path d="M8570 4049 c0 -5 5 -7 10 -4 6 3 10 8 10 11 0 2 -4 4 -10 4 -5 0 -10
-5 -10 -11z"/>
<path d="M8507 4029 c7 -7 15 -10 18 -7 3 3 -2 9 -12 12 -14 6 -15 5 -6 -5z"/>
<path d="M8529 3993 c-13 -16 -12 -17 4 -4 16 13 21 21 13 21 -2 0 -10 -8 -17
-17z"/>
<path d="M8570 3969 c0 -5 5 -7 10 -4 6 3 10 8 10 11 0 2 -4 4 -10 4 -5 0 -10
-5 -10 -11z"/>
<path d="M8576 3928 c3 -5 10 -6 15 -3 13 9 11 12 -6 12 -8 0 -12 -4 -9 -9z"/>
<path d="M7363 3758 c-3 -5 -2 -12 1 -15 3 -4 6 0 6 7 0 9 5 7 14 -5 19 -27
44 -27 44 -1 0 18 -6 22 -30 22 -16 0 -32 -4 -35 -8z m44 -13 c0 -8 -4 -12 -9
-9 -5 3 -6 10 -3 15 9 13 12 11 12 -6z"/>
<path d="M7190 3749 c0 -5 3 -8 8 -8 4 1 9 0 12 -1 19 -7 41 -7 45 0 3 5 12 7
20 3 8 -3 15 -1 15 4 0 4 -22 9 -50 10 -27 0 -50 -3 -50 -8z"/>
<path d="M8480 3750 c-9 -6 -10 -10 -3 -10 6 0 15 5 18 10 8 12 4 12 -15 0z"/>
<path d="M7316 3742 c-3 -5 1 -9 9 -9 8 0 12 4 9 9 -3 4 -7 8 -9 8 -2 0 -6 -4
-9 -8z"/>
<path d="M7025 3703 c2 -40 28 -73 40 -51 5 7 5 10 0 6 -4 -4 -14 0 -21 10
-20 25 -17 38 4 19 17 -16 19 -16 32 8 16 30 11 37 -28 40 -27 2 -29 0 -27
-32z m52 10 c2 -6 -1 -14 -7 -18 -13 -8 -42 13 -35 25 7 11 38 6 42 -7z"/>
<path d="M7046 3708 c3 -5 10 -6 15 -3 13 9 11 12 -6 12 -8 0 -12 -4 -9 -9z"/>
<path d="M6685 3689 c-3 -4 2 -6 10 -5 21 3 28 13 10 13 -9 0 -18 -4 -20 -8z"/>
<path d="M6505 3670 c-3 -6 1 -7 9 -4 18 7 21 14 7 14 -6 0 -13 -4 -16 -10z"/>
<path d="M7224 3649 c-4 -7 -3 -9 4 -5 5 3 13 0 15 -6 4 -9 6 -10 6 -1 1 17
-16 25 -25 12z"/>
<path d="M7335 3649 c6 -9 45 -8 45 2 0 4 -11 7 -25 7 -13 0 -22 -4 -20 -9z"/>
<path d="M7386 3635 c-9 -26 -7 -32 5 -12 6 10 9 21 6 23 -2 3 -7 -2 -11 -11z"/>
<path d="M7416 3635 c4 -8 10 -15 15 -15 4 0 6 7 3 15 -4 8 -10 15 -15 15 -4
0 -6 -7 -3 -15z"/>
<path d="M7546 3635 c4 -8 11 -15 16 -15 6 0 5 6 -2 15 -7 8 -14 15 -16 15 -2
0 -1 -7 2 -15z"/>
<path d="M6766 3632 c-3 -5 1 -9 9 -9 8 0 15 4 15 9 0 4 -4 8 -9 8 -6 0 -12
-4 -15 -8z"/>
<path d="M6807 3629 c7 -7 15 -10 18 -7 3 3 -2 9 -12 12 -14 6 -15 5 -6 -5z"/>
<path d="M6920 3636 c0 -2 7 -7 16 -10 8 -3 12 -2 9 4 -6 10 -25 14 -25 6z"/>
<path d="M7320 3630 c8 -5 20 -10 25 -10 6 0 3 5 -5 10 -8 5 -19 10 -25 10 -5
0 -3 -5 5 -10z"/>
<path d="M6555 3619 c-4 -5 -4 -13 -1 -16 3 -4 6 0 6 8 0 11 2 11 10 -1 6 -9
10 -10 10 -3 0 17 -17 25 -25 12z"/>
<path d="M6630 3620 c-13 -8 -12 -10 3 -10 9 0 17 5 17 10 0 12 -1 12 -20 0z"/>
<path d="M6696 3606 c6 -15 4 -17 -6 -11 -9 6 -11 4 -5 -4 5 -9 10 -10 18 -2
8 8 7 14 -2 24 -10 10 -11 8 -5 -7z"/>
<path d="M6734 3609 c-11 -19 10 -28 30 -13 11 8 15 14 10 14 -6 0 -16 -6 -23
-12 -11 -11 -13 -10 -8 5 7 19 2 23 -9 6z"/>
<path d="M6839 3618 c-6 -21 -5 -37 2 -32 5 3 7 9 4 14 -3 4 1 11 7 13 10 4
10 6 1 6 -7 1 -13 0 -14 -1z"/>
<path d="M7072 3601 c7 -9 13 -18 15 -20 1 -2 1 5 0 16 0 11 -7 20 -14 20 -10
0 -10 -4 -1 -16z"/>
<path d="M7107 3609 c7 -7 15 -10 18 -7 3 3 -2 9 -12 12 -14 6 -15 5 -6 -5z"/>
<path d="M7399 3613 c-6 -36 -4 -50 7 -50 10 0 11 4 4 12 -6 7 -8 20 -4 29 3
9 3 16 0 16 -3 0 -7 -3 -7 -7z"/>
<path d="M7444 3609 c-5 -8 -3 -9 6 -4 10 6 12 3 8 -13 -4 -12 -2 -20 3 -16
12 7 12 31 0 39 -5 3 -13 0 -17 -6z"/>
<path d="M7499 3615 c-1 0 -3 -10 -4 -22 -1 -12 1 -20 6 -17 4 2 5 12 2 21 -4
9 -2 14 3 10 6 -3 16 -2 24 3 11 7 9 9 -8 7 -12 0 -23 -1 -23 -2z"/>
<path d="M7575 3610 c-3 -5 -1 -10 4 -10 6 0 11 5 11 10 0 6 -2 10 -4 10 -3 0
-8 -4 -11 -10z"/>
<path d="M6441 3601 c-7 -5 -12 -13 -10 -18 2 -5 12 -1 22 9 18 19 12 24 -12
9z"/>
<path d="M6587 3597 c-3 -8 0 -14 7 -14 7 0 13 6 13 14 0 7 -4 13 -8 13 -4 0
-9 -6 -12 -13z"/>
<path d="M6891 3597 c-8 -10 -7 -14 2 -14 8 0 14 6 14 14 0 7 -1 13 -2 13 -2
0 -8 -6 -14 -13z"/>
<path d="M6969 3593 c-13 -16 -12 -17 4 -4 9 7 17 15 17 17 0 8 -8 3 -21 -13z"/>
<path d="M7016 3597 c3 -10 9 -15 12 -12 3 3 0 11 -7 18 -10 9 -11 8 -5 -6z"/>
<path d="M7166 3595 c-11 -8 -15 -15 -9 -15 6 0 16 7 23 15 16 19 11 19 -14 0z"/>
<path d="M7225 3590 c10 -11 20 -20 23 -20 3 0 -3 9 -13 20 -10 11 -20 20 -23
20 -3 0 3 -9 13 -20z"/>
<path d="M7553 3588 c1 -16 5 -28 9 -28 10 0 9 9 -2 35 -8 17 -8 16 -7 -7z"/>
<path d="M5921 3591 c-8 -5 -22 -8 -32 -6 -11 2 -16 -1 -13 -9 3 -7 -1 -13 -8
-14 -7 0 -24 -3 -36 -6 -18 -4 -22 -2 -18 9 7 20 -16 14 -32 -8 -7 -9 -18 -15
-23 -11 -6 3 -3 11 7 18 15 11 15 13 0 13 -9 0 -16 -4 -16 -9 0 -5 -4 -7 -9
-3 -13 8 -22 -10 -15 -29 5 -14 9 -14 22 -4 13 11 15 10 9 -5 -4 -10 -3 -16 2
-12 5 3 11 0 14 -7 2 -7 3 -3 1 8 -4 25 20 52 31 34 3 -5 1 -10 -4 -10 -6 0
-11 -5 -11 -12 0 -7 7 -5 18 5 15 14 18 14 31 0 13 -14 16 -13 30 5 14 18 19
19 33 8 10 -7 15 -16 11 -20 -4 -4 1 -4 11 0 15 6 17 4 11 -6 -6 -9 -4 -11 5
-5 10 6 9 11 -4 21 -10 7 -13 15 -7 18 7 4 13 49 6 46 0 0 -6 -4 -14 -9z m6
-24 c-5 -15 -29 -16 -34 -2 -2 6 6 11 18 12 12 1 19 -3 16 -10z m-182 -17 c3
-5 1 -10 -4 -10 -6 0 -11 5 -11 10 0 6 2 10 4 10 3 0 8 -4 11 -10z m119 -5
c-4 -8 -11 -12 -16 -9 -6 4 -5 10 3 15 19 12 19 11 13 -6z"/>
<path d="M6390 3590 c-8 -5 -10 -10 -5 -10 6 0 17 5 25 10 8 5 11 10 5 10 -5
0 -17 -5 -25 -10z"/>
<path d="M6639 3583 c-13 -17 -13 -17 6 -3 11 8 22 16 24 17 2 2 0 3 -6 3 -6
0 -17 -8 -24 -17z"/>
<path d="M6856 3583 c-6 -14 -5 -15 5 -6 7 7 10 15 7 18 -3 3 -9 -2 -12 -12z"/>
<path d="M7255 3590 c5 -8 42 -6 50 1 2 3 -8 5 -25 5 -16 0 -27 -3 -25 -6z"/>
<path d="M6510 3580 c0 -5 5 -10 11 -10 5 0 7 5 4 10 -3 6 -8 10 -11 10 -2 0
-4 -4 -4 -10z"/>
<path d="M6110 3574 c0 -3 7 -12 15 -20 16 -17 18 -14 9 10 -6 15 -24 23 -24
10z"/>
<path d="M6310 3559 c-7 -11 -9 -23 -7 -26 3 -2 8 5 12 16 3 12 11 18 17 15 7
-4 8 -2 4 4 -10 16 -14 15 -26 -9z"/>
<path d="M6674 3563 c16 -20 36 -23 36 -6 0 4 -3 3 -7 0 -3 -4 -16 1 -27 10
-21 18 -21 18 -2 -4z"/>
<path d="M6786 3568 c3 -4 9 -8 15 -8 5 0 9 4 9 8 0 5 -7 9 -15 9 -8 0 -12 -4
-9 -9z"/>
<path d="M5980 3561 c-8 -6 -11 -14 -6 -18 5 -4 11 -2 13 5 3 6 11 12 19 12 9
0 12 -4 9 -10 -3 -5 -1 -10 5 -10 16 0 6 24 -11 27 -8 2 -21 -1 -29 -6z"/>
<path d="M6190 3559 c0 -5 -4 -8 -8 -5 -5 3 -9 -1 -9 -8 0 -8 7 -12 15 -8 11
4 13 1 7 -8 -5 -8 -4 -11 3 -7 5 4 8 16 5 27 -6 21 -13 27 -13 9z"/>
<path d="M6575 3561 c-3 -6 -14 -8 -25 -6 -10 2 -25 -4 -32 -13 -11 -15 -11
-15 2 -6 8 6 27 10 41 9 16 -1 26 3 26 12 0 15 -4 17 -12 4z"/>
<path d="M6610 3567 c0 -2 6 -10 14 -16 11 -9 16 -9 22 1 4 7 4 10 -1 6 -4 -4
-14 -3 -22 3 -7 6 -13 9 -13 6z"/>
<path d="M7781 3554 c0 -11 3 -14 6 -6 3 7 2 16 -1 19 -3 4 -6 -2 -5 -13z"/>
<path d="M7813 3555 c0 -7 8 -10 19 -7 10 2 18 6 18 7 0 1 -8 5 -18 7 -11 3
-19 0 -19 -7z"/>
<path d="M150 3556 c0 -2 7 -7 16 -10 8 -3 12 -2 9 4 -6 10 -25 14 -25 6z"/>
<path d="M6224 3548 c-4 -7 -3 -8 5 -4 6 4 20 2 29 -6 15 -12 16 -11 3 5 -16
20 -27 22 -37 5z"/>
<path d="M6388 3553 c10 -4 10 -8 0 -21 -12 -15 -11 -16 5 -3 9 7 17 17 17 22
0 5 -8 9 -17 8 -12 0 -13 -2 -5 -6z"/>
<path d="M6450 3550 c0 -4 7 -7 15 -6 23 3 26 12 5 13 -11 1 -20 -2 -20 -7z"/>
<path d="M7440 3550 c-9 -6 -10 -10 -3 -10 6 0 15 5 18 10 8 12 4 12 -15 0z"/>
<path d="M7496 3548 c3 -5 10 -6 15 -3 13 9 11 12 -6 12 -8 0 -12 -4 -9 -9z"/>
<path d="M7610 3550 c0 -5 5 -10 10 -10 6 0 10 5 10 10 0 6 -4 10 -10 10 -5 0
-10 -4 -10 -10z"/>
<path d="M7706 3547 c-16 -12 -16 -13 2 -13 10 0 19 6 19 13 0 7 -1 13 -2 13
-1 0 -9 -6 -19 -13z"/>
<path d="M7751 3537 c-13 -21 -12 -21 5 -5 10 10 16 20 13 22 -3 3 -11 -5 -18
-17z"/>
<path d="M8090 3549 c0 -5 5 -7 10 -4 6 3 10 8 10 11 0 2 -4 4 -10 4 -5 0 -10
-5 -10 -11z"/>
<path d="M7335 3541 c-3 -5 -2 -12 3 -15 5 -3 9 1 9 9 0 17 -3 19 -12 6z"/>
<path d="M5886 3527 c3 -10 9 -15 12 -12 3 3 0 11 -7 18 -10 9 -11 8 -5 -6z"/>
<path d="M6935 3531 c-3 -5 -2 -12 3 -15 5 -3 9 1 9 9 0 17 -3 19 -12 6z"/>
<path d="M7296 3532 c-3 -5 1 -9 9 -9 8 0 12 4 9 9 -3 4 -7 8 -9 8 -2 0 -6 -4
-9 -8z"/>
<path d="M7975 3531 c-3 -5 -2 -12 3 -15 5 -3 9 1 9 9 0 17 -3 19 -12 6z"/>
<path d="M5703 3523 c-15 -5 -17 -23 -4 -23 5 0 11 7 15 15 3 8 4 15 3 14 -1
0 -8 -3 -14 -6z"/>
<path d="M5956 3513 c-6 -14 -5 -15 5 -6 7 7 10 15 7 18 -3 3 -9 -2 -12 -12z"/>
<path d="M5981 3508 c-13 -21 -13 -22 2 -9 14 11 20 11 34 0 15 -13 15 -12 2
9 -8 12 -16 22 -19 22 -3 0 -11 -10 -19 -22z"/>
<path d="M6030 3526 c0 -2 7 -9 15 -16 13 -11 14 -10 9 4 -5 14 -24 23 -24 12z"/>
<path d="M6415 3519 c-4 -6 -5 -12 -2 -15 2 -3 7 2 10 11 7 17 1 20 -8 4z"/>
<path d="M5802 3508 c-7 -7 -12 -17 -12 -22 0 -6 5 -3 11 7 6 9 14 15 20 12 5
-4 9 -1 9 4 0 14 -13 14 -28 -1z"/>
<path d="M6075 3511 c-3 -5 -2 -12 3 -15 5 -3 9 1 9 9 0 17 -3 19 -12 6z"/>
<path d="M6150 3511 c0 -6 4 -12 8 -15 5 -3 9 1 9 9 0 8 -4 15 -9 15 -4 0 -8
-4 -8 -9z"/>
<path d="M6455 3510 c3 -5 8 -10 11 -10 2 0 4 5 4 10 0 6 -5 10 -11 10 -5 0
-7 -4 -4 -10z"/>
<path d="M7625 3510 c-3 -6 1 -7 9 -4 18 7 21 14 7 14 -6 0 -13 -4 -16 -10z"/>
<path d="M7666 3512 c-3 -5 1 -9 9 -9 8 0 12 4 9 9 -3 4 -7 8 -9 8 -2 0 -6 -4
-9 -8z"/>
<path d="M5185 3500 c-3 -6 1 -7 9 -4 18 7 21 14 7 14 -6 0 -13 -4 -16 -10z"/>
<path d="M5226 3498 c3 -5 10 -6 15 -3 13 9 11 12 -6 12 -8 0 -12 -4 -9 -9z"/>
<path d="M5837 3497 c-3 -8 1 -14 8 -14 7 0 11 6 8 14 -3 7 -6 13 -8 13 -2 0
-5 -6 -8 -13z"/>
<path d="M6755 3499 c-4 -6 -5 -12 -2 -15 2 -3 7 2 10 11 7 17 1 20 -8 4z"/>
<path d="M5070 3488 c0 -5 -6 -6 -12 -2 -7 4 -10 4 -6 0 3 -4 10 -8 15 -8 4 0
13 -4 18 -8 6 -5 21 0 35 11 23 18 23 19 3 9 -13 -6 -23 -7 -23 -2 0 5 -7 9
-15 9 -8 0 -15 -4 -15 -9z"/>
<path d="M6106 3488 c3 -4 9 -8 15 -8 5 0 9 4 9 8 0 5 -7 9 -15 9 -8 0 -12 -4
-9 -9z"/>
<path d="M6267 3489 c7 -7 15 -10 18 -7 3 3 -2 9 -12 12 -14 6 -15 5 -6 -5z"/>
<path d="M6535 3489 c-3 -4 2 -6 10 -5 21 3 28 13 10 13 -9 0 -18 -4 -20 -8z"/>
<path d="M6655 3491 c-3 -5 -2 -12 3 -15 5 -3 9 1 9 9 0 17 -3 19 -12 6z"/>
<path d="M7735 3490 c-3 -5 -1 -10 4 -10 6 0 11 5 11 10 0 6 -2 10 -4 10 -3 0
-8 -4 -11 -10z"/>
<path d="M5668 3483 c7 -3 16 -2 19 1 4 3 -2 6 -13 5 -11 0 -14 -3 -6 -6z"/>
<path d="M5713 3477 c3 -8 0 -21 -6 -28 -10 -11 -9 -11 5 0 9 7 22 10 28 6 17
-11 11 0 -12 19 -16 14 -20 15 -15 3z"/>
<path d="M5460 3465 c-7 -8 -11 -15 -9 -16 31 -6 39 -6 39 2 0 5 -5 9 -11 9
-5 0 -7 5 -4 10 9 15 -1 12 -15 -5z"/>
<path d="M5521 3476 c2 -2 15 -9 29 -15 24 -11 24 -11 6 3 -16 13 -49 24 -35
12z"/>
<path d="M5605 3470 c-3 -6 1 -7 9 -4 18 7 21 14 7 14 -6 0 -13 -4 -16 -10z"/>
<path d="M5959 3463 c-13 -16 -12 -17 4 -4 9 7 17 15 17 17 0 8 -8 3 -21 -13z"/>
<path d="M5990 3468 c0 -4 4 -8 9 -8 6 0 12 4 15 8 3 5 -1 9 -9 9 -8 0 -15 -4
-15 -9z"/>
<path d="M6155 3470 c3 -5 8 -10 11 -10 2 0 4 5 4 10 0 6 -5 10 -11 10 -5 0
-7 -4 -4 -10z"/>
<path d="M4895 3460 c-4 -6 -10 -8 -15 -5 -4 3 -10 -1 -13 -8 -3 -9 2 -13 14
-12 25 2 44 20 31 29 -6 3 -13 2 -17 -4z"/>
<path d="M5675 3460 c-3 -5 -1 -10 4 -10 6 0 11 5 11 10 0 6 -2 10 -4 10 -3 0
-8 -4 -11 -10z"/>
<path d="M5628 3453 c6 -3 10 -9 6 -14 -8 -14 2 -11 14 4 8 10 6 13 -11 14
-12 0 -16 -1 -9 -4z"/>
<path d="M6215 3450 c3 -5 8 -10 11 -10 2 0 4 5 4 10 0 6 -5 10 -11 10 -5 0
-7 -4 -4 -10z"/>
<path d="M6246 3448 c3 -5 10 -6 15 -3 13 9 11 12 -6 12 -8 0 -12 -4 -9 -9z"/>
<path d="M6326 3448 c3 -5 10 -6 15 -3 13 9 11 12 -6 12 -8 0 -12 -4 -9 -9z"/>
<path d="M6390 3450 c0 -5 5 -10 11 -10 5 0 7 5 4 10 -3 6 -8 10 -11 10 -2 0
-4 -4 -4 -10z"/>
<path d="M6435 3439 c-4 -6 -5 -12 -2 -15 2 -3 7 2 10 11 7 17 1 20 -8 4z"/>
<path d="M5430 3418 c-12 -22 -12 -22 6 -6 10 10 15 20 12 24 -4 3 -12 -5 -18
-18z"/>
<path d="M5656 3423 c-6 -14 -5 -15 5 -6 7 7 10 15 7 18 -3 3 -9 -2 -12 -12z"/>
<path d="M5719 3423 c-13 -16 -12 -17 4 -4 9 7 17 15 17 17 0 8 -8 3 -21 -13z"/>
<path d="M5990 3430 c0 -5 5 -10 10 -10 6 0 10 5 10 10 0 6 -4 10 -10 10 -5 0
-10 -4 -10 -10z"/>
<path d="M6175 3430 c-3 -5 -1 -10 4 -10 6 0 11 5 11 10 0 6 -2 10 -4 10 -3 0
-8 -4 -11 -10z"/>
<path d="M5519 3428 c-5 -18 -6 -38 -1 -34 7 8 12 36 6 36 -2 0 -4 -1 -5 -2z"/>
<path d="M5850 3409 c0 -5 5 -7 10 -4 6 3 10 8 10 11 0 2 -4 4 -10 4 -5 0 -10
-5 -10 -11z"/>
<path d="M5895 3410 c3 -5 8 -10 11 -10 2 0 4 5 4 10 0 6 -5 10 -11 10 -5 0
-7 -4 -4 -10z"/>
<path d="M6055 3411 c-3 -5 -2 -12 3 -15 5 -3 9 1 9 9 0 17 -3 19 -12 6z"/>
<path d="M5150 3391 c0 -6 4 -12 8 -15 5 -3 9 1 9 9 0 8 -4 15 -9 15 -4 0 -8
-4 -8 -9z"/>
<path d="M5210 3390 c0 -5 5 -10 10 -10 6 0 10 5 10 10 0 6 -4 10 -10 10 -5 0
-10 -4 -10 -10z"/>
<path d="M5290 3392 c0 -5 7 -9 15 -9 8 0 12 4 9 9 -3 4 -9 8 -15 8 -5 0 -9
-4 -9 -8z"/>
<path d="M5095 3371 c-4 -7 1 -8 12 -4 15 6 16 4 6 -8 -10 -13 -10 -16 1 -16
16 0 15 29 -1 34 -6 2 -14 -1 -18 -6z"/>
<path d="M5323 3368 c-11 -19 -13 -39 -1 -32 5 3 7 9 4 12 -3 3 -1 11 5 19 6
7 9 13 6 13 -3 0 -9 -6 -14 -12z"/>
<path d="M5716 3372 c-3 -5 1 -9 9 -9 8 0 12 4 9 9 -3 4 -7 8 -9 8 -2 0 -6 -4
-9 -8z"/>
<path d="M4870 3360 c0 -5 5 -10 10 -10 6 0 10 5 10 10 0 6 -4 10 -10 10 -5 0
-10 -4 -10 -10z"/>
<path d="M4950 3361 c0 -14 29 -21 36 -9 4 7 3 8 -4 4 -7 -4 -12 -2 -12 3 0 6
-4 11 -10 11 -5 0 -10 -4 -10 -9z"/>
<path d="M5873 3355 c0 -8 4 -12 9 -9 5 3 6 10 3 15 -9 13 -12 11 -12 -6z"/>
<path d="M4910 3346 c7 -7 13 -7 20 0 6 6 3 10 -10 10 -13 0 -16 -4 -10 -10z"/>
<path d="M5173 3343 c0 -9 4 -10 14 -2 7 6 13 12 13 14 0 1 -6 2 -13 2 -8 0
-14 -6 -14 -14z"/>
<path d="M5239 3343 c-13 -16 -12 -17 4 -4 16 13 21 21 13 21 -2 0 -10 -8 -17
-17z"/>
<path d="M5646 3352 c-3 -5 1 -9 9 -9 8 0 12 4 9 9 -3 4 -7 8 -9 8 -2 0 -6 -4
-9 -8z"/>
<path d="M8030 3350 c0 -5 5 -10 11 -10 5 0 7 5 4 10 -3 6 -8 10 -11 10 -2 0
-4 -4 -4 -10z"/>
<path d="M4775 3331 c-3 -5 0 -13 6 -17 7 -4 9 -3 5 4 -3 5 0 13 6 15 9 4 10
6 1 6 -6 1 -14 -3 -18 -8z"/>
<path d="M4813 3333 c4 -6 2 -13 -5 -15 -8 -3 -6 -6 4 -10 17 -7 19 15 3 29
-4 4 -5 3 -2 -4z"/>
<path d="M4893 3319 c-2 -23 3 -25 10 -4 4 8 3 16 -1 19 -4 3 -9 -4 -9 -15z"/>
<path d="M5475 3329 c-3 -4 2 -6 10 -5 21 3 28 13 10 13 -9 0 -18 -4 -20 -8z"/>
<path d="M5010 3316 c0 -8 4 -17 9 -20 5 -4 7 3 4 14 -6 23 -13 26 -13 6z"/>
<path d="M5135 3319 c-4 -6 -5 -12 -2 -15 2 -3 7 2 10 11 7 17 1 20 -8 4z"/>
<path d="M4667 3309 c7 -7 15 -10 18 -7 3 3 -2 9 -12 12 -14 6 -15 5 -6 -5z"/>
<path d="M4741 3303 c0 -11 3 -13 6 -5 2 6 10 9 15 6 7 -4 8 -2 4 4 -11 18
-26 14 -25 -5z"/>
<path d="M5195 3310 c-3 -5 -1 -10 4 -10 6 0 11 5 11 10 0 6 -2 10 -4 10 -3 0
-8 -4 -11 -10z"/>
<path d="M5230 3309 c0 -5 5 -7 10 -4 6 3 10 8 10 11 0 2 -4 4 -10 4 -5 0 -10
-5 -10 -11z"/>
<path d="M5299 3318 c-5 -18 -6 -38 -1 -34 7 8 12 36 6 36 -2 0 -4 -1 -5 -2z"/>
<path d="M5410 3310 c0 -5 5 -10 11 -10 5 0 7 5 4 10 -3 6 -8 10 -11 10 -2 0
-4 -4 -4 -10z"/>
<path d="M7106 3312 c-3 -5 1 -9 9 -9 8 0 12 4 9 9 -3 4 -7 8 -9 8 -2 0 -6 -4
-9 -8z"/>
<path d="M175 3290 c3 -5 8 -10 11 -10 2 0 4 5 4 10 0 6 -5 10 -11 10 -5 0 -7
-4 -4 -10z"/>
<path d="M4615 3290 c-3 -6 1 -7 9 -4 18 7 21 14 7 14 -6 0 -13 -4 -16 -10z"/>
<path d="M4840 3290 c-9 -6 -10 -10 -3 -10 6 0 15 5 18 10 8 12 4 12 -15 0z"/>
<path d="M4592 3266 c1 -14 5 -23 9 -20 7 4 0 44 -7 44 -2 0 -3 -11 -2 -24z"/>
<path d="M6910 3286 c0 -2 8 -10 18 -17 15 -13 16 -12 3 4 -13 16 -21 21 -21
13z"/>
<path d="M4626 3272 c-3 -5 1 -9 9 -9 8 0 12 4 9 9 -3 4 -7 8 -9 8 -2 0 -6 -4
-9 -8z"/>
<path d="M4715 3271 c-3 -5 -2 -12 3 -15 5 -3 9 1 9 9 0 17 -3 19 -12 6z"/>
<path d="M4976 3268 c3 -5 10 -6 15 -3 13 9 11 12 -6 12 -8 0 -12 -4 -9 -9z"/>
<path d="M5039 3263 c-13 -16 -12 -17 4 -4 16 13 21 21 13 21 -2 0 -10 -8 -17
-17z"/>
<path d="M5235 3259 c-4 -6 -5 -12 -2 -15 2 -3 7 2 10 11 7 17 1 20 -8 4z"/>
<path d="M308 3253 c10 -4 10 -8 0 -21 -12 -15 -11 -16 4 -3 19 14 15 32 -5
30 -8 0 -8 -2 1 -6z"/>
<path d="M420 3246 c7 -7 13 -7 20 0 6 6 3 10 -10 10 -13 0 -16 -4 -10 -10z"/>
<path d="M340 3246 c0 -2 7 -7 16 -10 8 -3 12 -2 9 4 -6 10 -25 14 -25 6z"/>
<path d="M501 3240 c0 -8 3 -21 8 -28 6 -11 10 -10 15 4 3 9 4 19 1 22 -3 3
-5 -1 -6 -9 0 -8 -4 -6 -9 6 -6 13 -9 15 -9 5z"/>
<path d="M4460 3241 c0 -6 4 -13 10 -16 6 -3 7 1 4 9 -7 18 -14 21 -14 7z"/>
<path d="M4492 3230 c0 -14 2 -19 5 -12 2 6 2 18 0 25 -3 6 -5 1 -5 -13z"/>
<path d="M460 3230 c19 -12 19 -32 0 -48 -8 -8 -9 -11 -2 -7 7 4 21 1 30 -7
16 -12 16 -11 2 6 -14 18 -13 19 5 13 20 -7 20 -7 1 8 -11 8 -16 15 -12 15 5
0 3 7 -4 15 -7 8 -18 15 -24 15 -6 0 -4 -5 4 -10z"/>
<path d="M4635 3230 c3 -5 8 -10 11 -10 2 0 4 5 4 10 0 6 -5 10 -11 10 -5 0
-7 -4 -4 -10z"/>
<path d="M4660 3236 c0 -2 8 -10 18 -17 15 -13 16 -12 3 4 -13 16 -21 21 -21
13z"/>
<path d="M4696 3228 c3 -5 10 -6 15 -3 13 9 11 12 -6 12 -8 0 -12 -4 -9 -9z"/>
<path d="M4889 3227 c6 -8 7 -18 3 -22 -4 -5 -1 -5 6 -1 10 6 10 11 1 22 -6 8
-14 14 -16 14 -3 0 0 -6 6 -13z"/>
<path d="M437 3219 c7 -7 15 -10 18 -7 3 3 -2 9 -12 12 -14 6 -15 5 -6 -5z"/>
<path d="M577 3215 c-8 -8 -18 -11 -21 -7 -4 3 -4 -2 0 -11 3 -10 7 -17 8 -15
1 2 10 13 20 26 21 24 16 30 -7 7z"/>
<path d="M616 3222 c-4 -7 -2 -12 3 -12 6 0 13 0 16 0 9 0 42 -35 39 -41 -2
-3 3 -6 11 -6 8 0 15 4 15 9 0 4 -5 8 -11 8 -8 0 -7 5 1 15 7 9 10 18 6 22 -3
3 -6 0 -6 -8 0 -12 -2 -11 -11 1 -9 13 -10 12 -5 -2 7 -22 -10 -24 -18 -2 -3
8 -10 13 -15 10 -5 -4 -11 -1 -13 6 -3 9 -6 9 -12 0z"/>
<path d="M235 3209 c-3 -4 2 -6 10 -5 21 3 28 13 10 13 -9 0 -18 -4 -20 -8z"/>
<path d="M320 3210 c-9 -6 -10 -10 -3 -10 6 0 15 5 18 10 8 12 4 12 -15 0z"/>
<path d="M358 3213 c7 -3 16 -2 19 1 4 3 -2 6 -13 5 -11 0 -14 -3 -6 -6z"/>
<path d="M4455 3213 c3 -3 0 -11 -5 -18 -7 -8 -5 -12 4 -12 14 0 16 22 3 32
-4 3 -5 2 -2 -2z"/>
<path d="M4730 3210 c0 -5 5 -10 11 -10 5 0 7 5 4 10 -3 6 -8 10 -11 10 -2 0
-4 -4 -4 -10z"/>
<path d="M4770 3210 c0 -5 5 -10 11 -10 5 0 7 5 4 10 -3 6 -8 10 -11 10 -2 0
-4 -4 -4 -10z"/>
<path d="M4926 3212 c-3 -5 1 -9 9 -9 8 0 12 4 9 9 -3 4 -7 8 -9 8 -2 0 -6 -4
-9 -8z"/>
<path d="M530 3195 c0 -8 4 -15 10 -15 5 0 7 7 4 15 -4 8 -8 15 -10 15 -2 0
-4 -7 -4 -15z"/>
<path d="M719 3209 c-1 -2 -3 -17 -5 -33 -3 -26 -2 -27 10 -10 13 17 15 17 40
-4 23 -18 56 -21 56 -5 0 3 -7 3 -15 -1 -9 -3 -30 8 -50 25 -19 17 -36 29 -36
28z"/>
<path d="M781 3196 c-9 -11 -8 -15 5 -20 9 -4 19 -4 22 -1 3 3 0 5 -6 5 -7 0
-12 5 -12 11 0 5 5 7 10 4 6 -3 10 -1 10 4 0 15 -15 14 -29 -3z"/>
<path d="M377 3185 c-4 -8 -3 -16 1 -19 4 -3 9 4 9 15 2 23 -3 25 -10 4z"/>
<path d="M598 3193 c7 -3 16 -2 19 1 4 3 -2 6 -13 5 -11 0 -14 -3 -6 -6z"/>
<path d="M4375 3190 c-4 -6 1 -7 12 -3 16 6 17 5 3 -13 -14 -18 -14 -18 3 -5
9 7 17 17 17 22 0 12 -27 11 -35 -1z"/>
<path d="M636 3180 c7 -8 14 -24 17 -35 4 -19 5 -19 6 1 0 12 -7 28 -16 35
-16 12 -17 12 -7 -1z"/>
<path d="M1025 3179 c-10 -15 3 -25 16 -12 7 7 7 13 1 17 -6 3 -14 1 -17 -5z"/>
<path d="M2646 3182 c-3 -5 1 -9 9 -9 8 0 12 4 9 9 -3 4 -7 8 -9 8 -2 0 -6 -4
-9 -8z"/>
<path d="M2874 3175 c-5 -11 -10 -13 -19 -5 -9 8 -15 8 -20 0 -4 -6 -3 -9 2
-8 12 4 52 -39 45 -48 -4 -5 1 -2 11 5 19 15 24 2 6 -16 -8 -8 -6 -13 9 -17
11 -4 22 -15 25 -25 2 -10 11 -18 20 -18 9 0 14 4 11 9 -3 5 -9 6 -14 3 -10
-6 -20 32 -13 51 4 10 10 11 24 3 10 -5 19 -15 19 -21 0 -7 -5 -6 -15 2 -18
15 -20 4 -2 -14 6 -6 23 -12 37 -13 21 -2 22 0 8 8 -10 6 -18 14 -18 20 0 5
11 3 24 -6 20 -13 25 -14 35 -1 19 23 49 16 47 -11 0 -14 -6 -21 -13 -19 -7 3
-15 1 -17 -3 -3 -5 3 -8 14 -7 11 0 31 15 45 31 22 28 24 28 22 8 -1 -13 -5
-23 -9 -23 -4 0 -8 -5 -8 -11 0 -8 5 -8 15 1 18 15 18 10 5 -24 -14 -38 -2
-32 14 7 9 22 10 36 3 45 -8 11 -5 11 17 1 18 -9 23 -15 14 -20 -6 -4 6 -6 27
-4 22 1 49 -2 59 -7 17 -10 18 -11 3 -20 -10 -5 -17 -13 -17 -19 0 -6 14 4 32
20 36 34 51 33 22 -1 -19 -23 -19 -23 2 -6 16 14 23 15 33 5 11 -9 14 -9 18 1
3 6 8 10 11 8 4 -2 8 8 8 22 1 15 -1 21 -3 14 -3 -8 -10 -5 -22 10 -17 20 -57
36 -45 17 3 -5 0 -9 -5 -9 -6 0 -11 7 -11 16 0 14 -3 13 -17 -3 -10 -10 -15
-14 -10 -7 9 14 -13 34 -36 30 -27 -4 -31 -15 -12 -36 10 -11 15 -23 11 -27
-4 -5 -11 -1 -16 7 -15 27 -58 69 -64 63 -3 -3 -16 1 -30 10 -21 14 -25 14
-30 2 -7 -18 7 -27 31 -18 10 3 15 2 10 -2 -4 -5 -23 -9 -42 -10 -33 -2 -34
-1 -20 15 11 12 13 20 6 25 -15 9 -31 -3 -25 -19 6 -15 -47 -18 -57 -3 -4 5
-10 4 -13 -2 -4 -6 -2 -11 3 -11 6 0 11 -5 11 -11 0 -8 -4 -8 -14 0 -8 7 -13
20 -11 29 2 9 4 19 4 22 1 2 6 -1 13 -8 19 -19 33 -14 15 6 -10 10 -16 21 -15
23 2 2 -5 -5 -14 -16 -10 -11 -18 -26 -18 -32 0 -23 -17 -13 -17 10 -1 47 -2
50 -17 38 -11 -9 -20 -10 -36 -1 -16 9 -21 8 -26 -5z m63 -27 c9 -8 9 -15 -4
-34 -9 -14 -18 -22 -21 -20 -3 3 1 12 8 21 7 8 9 15 4 16 -43 3 -61 13 -45 24
6 3 11 1 11 -5 0 -6 5 -8 10 -5 6 4 7 11 4 17 -7 11 9 4 33 -14z m113 -38 c5
8 10 10 10 5 0 -17 -21 -34 -36 -28 -7 2 -10 11 -7 20 5 12 7 12 14 1 7 -11
11 -10 19 2z m152 -17 c17 -19 18 -23 5 -17 -9 3 -17 10 -17 15 0 5 -3 8 -7 8
-18 -3 -33 2 -33 9 0 17 30 8 52 -15z m54 7 c9 0 12 5 8 12 -4 7 -3 8 5 4 8
-6 9 -12 2 -20 -15 -17 -2 -27 19 -16 10 5 20 7 23 3 4 -3 13 0 21 6 12 10 18
7 32 -14 12 -19 14 -29 6 -37 -8 -8 -14 -4 -23 15 l-12 26 -19 -22 -19 -22 5
25 c3 14 3 19 0 13 -3 -7 -11 -13 -17 -13 -15 0 -57 41 -56 54 0 6 3 5 6 -1 2
-7 11 -13 19 -13z m-134 -15 c-9 -11 -18 -21 -18 -23 -1 -2 -1 7 -1 20 1 15 8
24 19 24 16 0 16 -1 0 -21z"/>
<path d="M2910 3146 c0 -2 7 -7 16 -10 8 -3 12 -2 9 4 -6 10 -25 14 -25 6z"/>
<path d="M3350 3070 c6 -11 13 -20 16 -20 2 0 0 9 -6 20 -6 11 -13 20 -16 20
-2 0 0 -9 6 -20z"/>
<path d="M310 3176 c0 -2 7 -7 16 -10 8 -3 12 -2 9 4 -6 10 -25 14 -25 6z"/>
<path d="M579 3177 c-6 -17 -5 -37 3 -37 6 0 7 7 4 15 -7 20 24 16 42 -5 11
-13 12 -12 3 5 -5 11 -19 21 -30 22 -12 1 -21 1 -22 0z"/>
<path d="M870 3170 c0 -5 6 -10 13 -10 8 0 7 -4 -3 -10 -8 -5 -10 -10 -4 -10
16 0 23 10 17 26 -6 16 -23 19 -23 4z"/>
<path d="M1056 3165 c-3 -9 -4 -21 0 -26 3 -5 -1 -9 -8 -9 -7 0 -19 -10 -27
-22 -13 -21 -13 -21 15 1 16 13 29 30 29 38 0 9 6 18 13 20 7 3 10 -1 6 -11
-3 -9 -1 -16 6 -16 6 0 9 4 6 8 -3 5 8 9 24 9 16 0 27 -4 24 -9 -3 -4 0 -8 6
-8 23 0 3 25 -21 27 -13 0 -34 4 -45 8 -15 5 -23 2 -28 -10z"/>
<path d="M1926 3168 c3 -5 10 -6 15 -3 13 9 11 12 -6 12 -8 0 -12 -4 -9 -9z"/>
<path d="M966 3161 c6 -6 24 -14 40 -17 16 -3 26 -3 23 1 -4 3 -16 7 -28 10
-11 2 -27 7 -34 11 -9 5 -9 4 -1 -5z"/>
<path d="M1245 3160 c-3 -5 -2 -18 4 -27 7 -14 9 -12 8 10 -2 30 -3 31 -12 17z"/>
<path d="M1696 3162 c-3 -5 1 -9 9 -9 8 0 12 4 9 9 -3 4 -7 8 -9 8 -2 0 -6 -4
-9 -8z"/>
<path d="M730 3150 c0 -5 5 -10 10 -10 6 0 10 5 10 10 0 6 -4 10 -10 10 -5 0
-10 -4 -10 -10z"/>
<path d="M4330 3155 c0 -7 30 -13 34 -7 3 4 -4 9 -15 9 -10 1 -19 0 -19 -2z"/>
<path d="M830 3141 c0 -7 -5 -9 -12 -5 -7 5 -8 3 -3 -5 5 -9 10 -10 18 -2 6 6
8 14 4 18 -4 3 -7 1 -7 -6z"/>
<path d="M944 3138 c-4 -7 -4 -10 1 -6 4 4 16 3 26 -3 11 -5 19 -7 19 -5 0 3
-9 10 -19 16 -15 7 -22 7 -27 -2z"/>
<path d="M765 3132 c-15 -11 -16 -29 0 -29 7 0 11 7 7 15 -4 11 -1 13 8 7 9
-5 11 -4 6 3 -8 14 -8 14 -21 4z"/>
<path d="M857 3124 c4 -12 3 -15 -5 -10 -16 10 -15 1 1 -12 10 -8 13 -6 14 8
1 11 -2 22 -8 25 -5 4 -6 -2 -2 -11z"/>
<path d="M895 3129 c-4 -6 -5 -12 -2 -15 2 -3 7 2 10 11 7 17 1 20 -8 4z"/>
<path d="M1110 3130 c0 -5 5 -10 10 -10 6 0 10 5 10 10 0 6 -4 10 -10 10 -5 0
-10 -4 -10 -10z"/>
<path d="M4305 3129 c-3 -4 2 -6 10 -5 21 3 28 13 10 13 -9 0 -18 -4 -20 -8z"/>
<path d="M4494 3132 c4 -3 14 -7 22 -8 9 -1 13 0 10 4 -4 3 -14 7 -22 8 -9 1
-13 0 -10 -4z"/>
<path d="M1230 3115 c0 -8 4 -15 10 -15 5 0 7 7 4 15 -4 8 -8 15 -10 15 -2 0
-4 -7 -4 -15z"/>
<path d="M656 3108 c3 -5 10 -6 15 -3 13 9 11 12 -6 12 -8 0 -12 -4 -9 -9z"/>
<path d="M796 3112 c-3 -5 1 -9 9 -9 8 0 12 4 9 9 -3 4 -7 8 -9 8 -2 0 -6 -4
-9 -8z"/>
<path d="M1071 3117 c2 -1 12 -9 22 -16 15 -12 17 -12 11 3 -3 9 -13 16 -22
16 -8 0 -13 -1 -11 -3z"/>
<path d="M1478 3102 c-3 -11 0 -19 7 -19 7 0 10 8 7 19 -2 10 -6 18 -7 18 -1
0 -5 -8 -7 -18z"/>
<path d="M1881 3104 c0 -11 3 -14 6 -6 3 7 2 16 -1 19 -3 4 -6 -2 -5 -13z"/>
<path d="M1832 3094 c-7 -8 -8 -14 -3 -14 10 0 25 19 20 25 -2 1 -10 -3 -17
-11z"/>
<path d="M575 3090 c-3 -5 -1 -10 4 -10 6 0 11 5 11 10 0 6 -2 10 -4 10 -3 0
-8 -4 -11 -10z"/>
<path d="M1160 3090 c-9 -6 -10 -10 -3 -10 6 0 15 5 18 10 8 12 4 12 -15 0z"/>
<path d="M1917 3086 c-4 -9 -15 -13 -28 -11 -12 2 -19 1 -15 -2 12 -13 35 -11
47 3 7 8 10 17 7 20 -3 3 -8 -2 -11 -10z"/>
<path d="M1974 3085 c-4 -8 -9 -13 -13 -10 -9 5 -8 -41 1 -50 4 -4 5 1 4 12
-2 10 4 28 12 41 8 12 11 22 8 22 -4 0 -9 -7 -12 -15z"/>
<path d="M2070 3095 c0 -5 5 -17 10 -25 5 -8 10 -10 10 -5 0 6 -5 17 -10 25
-5 8 -10 11 -10 5z"/>
<path d="M2196 3083 c-6 -14 -5 -15 5 -6 7 7 10 15 7 18 -3 3 -9 -2 -12 -12z"/>
<path d="M4307 3089 c7 -7 15 -10 18 -7 3 3 -2 9 -12 12 -14 6 -15 5 -6 -5z"/>
<path d="M1518 3083 c7 -3 16 -2 19 1 4 3 -2 6 -13 5 -11 0 -14 -3 -6 -6z"/>
<path d="M1740 3086 c0 -2 7 -7 16 -10 8 -3 12 -2 9 4 -6 10 -25 14 -25 6z"/>
<path d="M2031 3074 c0 -11 3 -14 6 -6 3 7 2 16 -1 19 -3 4 -6 -2 -5 -13z"/>
<path d="M2360 3080 c0 -5 -5 -9 -11 -7 -6 1 -13 -4 -14 -11 -2 -7 -1 -8 2 -2
3 7 13 5 27 -7 11 -9 16 -11 9 -4 -6 7 -9 20 -6 27 3 8 2 14 -1 14 -3 0 -6 -4
-6 -10z"/>
<path d="M2393 3075 c1 -12 8 -21 18 -21 9 0 15 6 12 13 -3 7 -9 11 -13 8 -5
-3 -10 1 -13 7 -3 7 -5 4 -4 -7z"/>
<path d="M2441 3073 c7 -12 15 -20 18 -17 3 2 -3 12 -13 22 -17 16 -18 16 -5
-5z"/>
<path d="M2681 3073 c7 -12 15 -20 18 -17 3 2 -3 12 -13 22 -17 16 -18 16 -5
-5z"/>
<path d="M2782 3070 c0 -14 2 -19 5 -12 2 6 2 18 0 25 -3 6 -5 1 -5 -13z"/>
<path d="M2810 3070 c0 -11 2 -20 4 -20 2 0 6 9 9 20 3 11 1 20 -4 20 -5 0 -9
-9 -9 -20z"/>
<path d="M2840 3081 c0 -6 4 -13 10 -16 6 -3 7 1 4 9 -7 18 -14 21 -14 7z"/>
<path d="M4250 3087 c0 -2 6 -10 14 -16 11 -9 16 -9 22 1 4 7 4 10 -1 6 -4 -4
-14 -3 -22 3 -7 6 -13 9 -13 6z"/>
<path d="M901 3066 c-9 -11 -9 -16 1 -22 7 -4 10 -4 6 1 -4 4 -3 14 3 22 6 7
9 13 6 13 -2 0 -10 -6 -16 -14z"/>
<path d="M966 3068 c3 -5 10 -6 15 -3 13 9 11 12 -6 12 -8 0 -12 -4 -9 -9z"/>
<path d="M1073 3065 c0 -8 4 -12 9 -9 5 3 6 10 3 15 -9 13 -12 11 -12 -6z"/>
<path d="M1106 3068 c3 -5 10 -6 15 -3 13 9 11 12 -6 12 -8 0 -12 -4 -9 -9z"/>
<path d="M1410 3069 c0 -5 5 -7 10 -4 6 3 10 8 10 11 0 2 -4 4 -10 4 -5 0 -10
-5 -10 -11z"/>
<path d="M1593 3065 c0 -8 4 -12 9 -9 5 3 6 10 3 15 -9 13 -12 11 -12 -6z"/>
<path d="M1640 3070 c18 -12 30 -13 30 -2 0 4 -10 9 -22 9 -18 2 -20 0 -8 -7z"/>
<path d="M1686 3072 c-3 -5 1 -9 9 -9 8 0 15 4 15 9 0 4 -4 8 -9 8 -6 0 -12
-4 -15 -8z"/>
<path d="M2130 3076 c0 -2 7 -7 16 -10 8 -3 12 -2 9 4 -6 10 -25 14 -25 6z"/>
<path d="M2535 3071 c-3 -5 -2 -12 3 -15 5 -3 9 1 9 9 0 17 -3 19 -12 6z"/>
<path d="M2601 3064 c0 -11 3 -14 6 -6 3 7 2 16 -1 19 -3 4 -6 -2 -5 -13z"/>
<path d="M2631 3062 c-7 -14 -6 -19 4 -19 8 0 11 7 7 16 -5 14 -4 14 11 2 15
-12 17 -12 11 3 -8 21 -21 20 -33 -2z"/>
<path d="M2870 3060 c-6 -11 -9 -20 -8 -20 2 0 11 9 21 20 9 11 13 20 7 20 -5
0 -14 -9 -20 -20z"/>
<path d="M3046 3065 c-11 -8 -17 -17 -14 -21 4 -3 16 4 27 15 24 24 15 28 -13
6z"/>
<path d="M4235 3073 c3 -3 0 -11 -5 -18 -7 -8 -5 -12 4 -12 14 0 16 22 3 32
-4 3 -5 2 -2 -2z"/>
<path d="M2470 3066 c0 -2 8 -10 18 -17 15 -13 16 -12 3 4 -13 16 -21 21 -21
13z"/>
<path d="M4335 3061 c-3 -5 -2 -12 3 -15 5 -3 9 1 9 9 0 17 -3 19 -12 6z"/>
<path d="M730 3055 c0 -7 30 -13 34 -7 3 4 -4 9 -15 9 -10 1 -19 0 -19 -2z"/>
<path d="M2830 3051 c0 -6 4 -13 10 -16 6 -3 7 1 4 9 -7 18 -14 21 -14 7z"/>
<path d="M2894 3052 c3 -5 0 -13 -6 -15 -9 -4 -10 -6 -1 -6 17 -1 25 16 12 25
-7 4 -9 3 -5 -4z"/>
<path d="M1194 3036 c1 -8 5 -18 8 -22 4 -3 5 1 4 10 -1 8 -5 18 -8 22 -4 3
-5 -1 -4 -10z"/>
<path d="M1533 3035 c0 -8 4 -12 9 -9 5 3 6 10 3 15 -9 13 -12 11 -12 -6z"/>
<path d="M1895 3041 c-3 -5 -2 -12 3 -15 5 -3 9 1 9 9 0 17 -3 19 -12 6z"/>
<path d="M2755 3039 c-4 -6 -5 -12 -2 -15 2 -3 7 2 10 11 7 17 1 20 -8 4z"/>
<path d="M4170 3046 c0 -2 8 -10 18 -17 15 -13 16 -12 3 4 -13 16 -21 21 -21
13z"/>
<path d="M4629 3033 c-13 -16 -12 -17 4 -4 16 13 21 21 13 21 -2 0 -10 -8 -17
-17z"/>
<path d="M996 3028 c3 -5 10 -6 15 -3 13 9 11 12 -6 12 -8 0 -12 -4 -9 -9z"/>
<path d="M1150 3029 c0 -5 5 -7 10 -4 6 3 10 8 10 11 0 2 -4 4 -10 4 -5 0 -10
-5 -10 -11z"/>
<path d="M2347 3029 c7 -7 15 -10 18 -7 3 3 -2 9 -12 12 -14 6 -15 5 -6 -5z"/>
<path d="M2400 3030 c-9 -6 -10 -10 -3 -10 6 0 15 5 18 10 8 12 4 12 -15 0z"/>
<path d="M2775 3031 c-3 -5 -2 -12 3 -15 5 -3 9 1 9 9 0 17 -3 19 -12 6z"/>
<path d="M2919 3038 c-7 -23 -4 -35 7 -35 9 0 11 4 4 12 -5 7 -7 15 -3 18 3 4
3 7 0 7 -4 0 -7 -1 -8 -2z"/>
<path d="M3100 3030 c-9 -6 -10 -10 -3 -10 6 0 15 5 18 10 8 12 4 12 -15 0z"/>
<path d="M3210 3036 c0 -2 7 -7 16 -10 8 -3 12 -2 9 4 -6 10 -25 14 -25 6z"/>
<path d="M3250 3025 c0 -8 2 -15 4 -15 2 0 6 7 10 15 3 8 1 15 -4 15 -6 0 -10
-7 -10 -15z"/>
<path d="M1275 3021 c-3 -5 -2 -12 3 -15 5 -3 9 1 9 9 0 17 -3 19 -12 6z"/>
<path d="M3000 3026 c0 -2 7 -7 16 -10 8 -3 12 -2 9 4 -6 10 -25 14 -25 6z"/>
<path d="M3055 3020 c-3 -6 1 -7 9 -4 18 7 21 14 7 14 -6 0 -13 -4 -16 -10z"/>
<path d="M3483 3023 c-15 -5 -17 -23 -4 -23 5 0 11 7 15 15 3 8 4 15 3 14 -1
0 -8 -3 -14 -6z"/>
<path d="M4159 3025 c-1 -3 -2 -8 -3 -12 -1 -5 -5 -15 -10 -23 -7 -12 -6 -13
4 -3 13 12 23 43 14 43 -2 0 -5 -2 -5 -5z"/>
<path d="M1656 3012 c-3 -5 1 -9 9 -9 8 0 12 4 9 9 -3 4 -7 8 -9 8 -2 0 -6 -4
-9 -8z"/>
<path d="M1730 3016 c0 -2 7 -7 16 -10 8 -3 12 -2 9 4 -6 10 -25 14 -25 6z"/>
<path d="M1810 3016 c0 -2 7 -7 16 -10 8 -3 12 -2 9 4 -6 10 -25 14 -25 6z"/>
<path d="M2015 3010 c-3 -5 -1 -10 4 -10 6 0 11 5 11 10 0 6 -2 10 -4 10 -3 0
-8 -4 -11 -10z"/>
<path d="M2290 3009 c0 -5 5 -7 10 -4 6 3 10 8 10 11 0 2 -4 4 -10 4 -5 0 -10
-5 -10 -11z"/>
<path d="M2626 3008 c3 -5 10 -6 15 -3 13 9 11 12 -6 12 -8 0 -12 -4 -9 -9z"/>
<path d="M2840 3005 c-7 -9 -11 -17 -9 -20 3 -2 10 5 17 15 14 24 10 26 -8 5z"/>
<path d="M2870 3016 c0 -2 7 -7 16 -10 8 -3 12 -2 9 4 -6 10 -25 14 -25 6z"/>
<path d="M3214 3012 c7 -12 -5 -16 -31 -13 -7 1 -13 -4 -13 -10 0 -7 3 -9 7
-6 3 4 13 1 22 -5 9 -7 13 -8 9 -4 -4 5 0 14 9 21 13 9 13 14 3 20 -9 5 -11 4
-6 -3z"/>
<path d="M3333 3004 c-3 -8 -2 -19 3 -24 5 -5 9 1 9 16 0 28 -3 30 -12 8z"/>
<path d="M3505 3010 c-3 -6 1 -7 9 -4 18 7 21 14 7 14 -6 0 -13 -4 -16 -10z"/>
<path d="M4109 3007 c6 -8 7 -18 3 -22 -4 -5 -1 -5 6 -1 10 6 10 11 1 22 -6 8
-14 14 -16 14 -3 0 0 -6 6 -13z"/>
<path d="M1910 3006 c0 -2 8 -10 18 -17 15 -13 16 -12 3 4 -13 16 -21 21 -21
13z"/>
<path d="M2193 2995 c0 -8 4 -12 9 -9 5 3 6 10 3 15 -9 13 -12 11 -12 -6z"/>
<path d="M2995 2990 c2 -27 10 -33 12 -10 1 11 -2 22 -6 24 -4 3 -7 -4 -6 -14z"/>
<path d="M3555 3000 c4 -6 1 -19 -7 -28 -12 -15 -11 -16 4 -4 9 8 23 10 30 6
7 -4 4 2 -6 14 -20 23 -32 29 -21 12z"/>
<path d="M833 2985 c0 -8 4 -12 9 -9 5 3 6 10 3 15 -9 13 -12 11 -12 -6z"/>
<path d="M2390 2996 c0 -2 7 -7 16 -10 8 -3 12 -2 9 4 -6 10 -25 14 -25 6z"/>
<path d="M3030 2985 c5 -7 8 -14 5 -17 -3 -3 3 -11 12 -19 16 -12 17 -12 7 1
-6 8 -10 22 -9 31 2 9 -3 16 -11 16 -9 0 -11 -4 -4 -12z"/>
<path d="M3234 2978 c-19 -23 -19 -23 2 -5 11 9 24 14 29 10 4 -5 5 -2 1 5 -9
16 -10 16 -32 -10z"/>
<path d="M3403 2983 c-10 -10 -13 -14 -6 -10 6 5 18 5 24 1 7 -4 9 -3 5 4 -3
5 0 13 6 15 8 4 9 6 2 6 -7 1 -20 -7 -31 -16z"/>
<path d="M3516 2984 c-20 -19 -20 -25 -2 -18 8 3 17 12 20 20 7 18 1 18 -18
-2z"/>
<path d="M4056 2988 c3 -4 11 -5 19 -1 21 7 19 12 -4 10 -11 0 -18 -5 -15 -9z"/>
<path d="M2613 2975 c0 -8 4 -12 9 -9 5 3 6 10 3 15 -9 13 -12 11 -12 -6z"/>
<path d="M3114 2965 c0 -13 3 -22 7 -19 8 4 6 30 -2 38 -3 3 -5 -5 -5 -19z"/>
<path d="M2515 2969 c-3 -4 2 -6 10 -5 21 3 28 13 10 13 -9 0 -18 -4 -20 -8z"/>
<path d="M3300 2976 c0 -2 8 -10 18 -17 15 -13 16 -12 3 4 -13 16 -21 21 -21
13z"/>
<path d="M4174 2972 c4 -3 14 -7 22 -8 9 -1 13 0 10 4 -4 3 -14 7 -22 8 -9 1
-13 0 -10 -4z"/>
<path d="M1500 2956 c0 -2 8 -10 18 -17 15 -13 16 -12 3 4 -13 16 -21 21 -21
13z"/>
<path d="M1660 2956 c0 -2 8 -10 18 -17 15 -13 16 -12 3 4 -13 16 -21 21 -21
13z"/>
<path d="M2815 2950 c-3 -5 -1 -10 4 -10 6 0 11 5 11 10 0 6 -2 10 -4 10 -3 0
-8 -4 -11 -10z"/>
<path d="M3076 2948 c3 -5 10 -6 15 -3 13 9 11 12 -6 12 -8 0 -12 -4 -9 -9z"/>
<path d="M3174 2945 c3 -23 12 -26 13 -5 1 11 -2 20 -7 20 -4 0 -7 -7 -6 -15z"/>
<path d="M3586 2948 c3 -5 10 -6 15 -3 13 9 11 12 -6 12 -8 0 -12 -4 -9 -9z"/>
<path d="M2935 2929 c-3 -4 2 -6 10 -5 21 3 28 13 10 13 -9 0 -18 -4 -20 -8z"/>
<path d="M3730 2929 c0 -5 5 -7 10 -4 6 3 10 8 10 11 0 2 -4 4 -10 4 -5 0 -10
-5 -10 -11z"/>
<path d="M3855 2930 c3 -5 8 -10 11 -10 2 0 4 5 4 10 0 6 -5 10 -11 10 -5 0
-7 -4 -4 -10z"/>
<path d="M3890 2929 c0 -5 5 -7 10 -4 6 3 10 8 10 11 0 2 -4 4 -10 4 -5 0 -10
-5 -10 -11z"/>
<path d="M2346 2912 c-3 -5 1 -9 9 -9 8 0 12 4 9 9 -3 4 -7 8 -9 8 -2 0 -6 -4
-9 -8z"/>
<path d="M3986 2908 c3 -5 10 -6 15 -3 13 9 11 12 -6 12 -8 0 -12 -4 -9 -9z"/>
<path d="M3314 2892 c4 -3 14 -7 22 -8 9 -1 13 0 10 4 -4 3 -14 7 -22 8 -9 1
-13 0 -10 -4z"/>
<path d="M3370 2895 c0 -7 30 -13 34 -7 3 4 -4 9 -15 9 -10 1 -19 0 -19 -2z"/>
<path d="M3590 2890 c0 -5 5 -10 11 -10 5 0 7 5 4 10 -3 6 -8 10 -11 10 -2 0
-4 -4 -4 -10z"/>
<path d="M3635 2890 c-3 -5 -1 -10 4 -10 6 0 11 5 11 10 0 6 -2 10 -4 10 -3 0
-8 -4 -11 -10z"/>
<path d="M2825 2830 c-3 -6 1 -7 9 -4 18 7 21 14 7 14 -6 0 -13 -4 -16 -10z"/>
<path d="M3553 2825 c0 -8 4 -12 9 -9 5 3 6 10 3 15 -9 13 -12 11 -12 -6z"/>
</g>
</svg>
